<?xml version="1.0" encoding="UTF-8"?>
<svg version="1.1" xmlns="http://www.w3.org/2000/svg" width="1024" height="1024">
<path d="M0 0 C147.84 0 295.68 0 448 0 C448 0.33 448 0.66 448 1 C449.15113281 1.20753906 450.30226563 1.41507813 451.48828125 1.62890625 C487.04949004 8.37535403 517.96904854 26.6215679 538.68725586 56.76123047 C555.41608562 82.06170574 561.30629275 110.58906725 561.29193115 140.47961426 C561.29838309 142.18398919 561.30568767 143.88836106 561.31376004 145.59272909 C561.33326649 150.23050138 561.3407104 154.86822321 561.34599233 159.50603056 C561.35385345 164.52604614 561.37306433 169.54602075 561.39076233 174.56600952 C561.42354562 184.38440666 561.44577324 194.20280009 561.46412745 204.02123374 C561.47924683 212.00978738 561.49818724 219.99832358 561.51981354 227.98686218 C561.52289536 229.12676455 561.52597719 230.26666691 561.52915241 231.44111177 C561.53542972 233.7573877 561.54171515 236.0736636 561.54800859 238.38993949 C561.60649623 260.08458357 561.65291163 281.77924064 561.69521323 303.47392148 C561.73171366 322.04547191 561.77875615 340.61697126 561.83349609 359.18847656 C561.89718283 380.79662188 561.95408958 402.40476817 562.0004847 424.01295805 C562.00546372 426.32284262 562.01045196 428.63272717 562.01544952 430.94261169 C562.01790508 432.07885645 562.02036064 433.21510121 562.02289061 434.38577762 C562.04056778 442.35066862 562.06302364 450.31553772 562.08739471 458.28041077 C562.1170351 468.00775732 562.13922465 477.73508808 562.15219894 487.46247166 C562.15898774 492.41533948 562.16890882 497.3681429 562.18795204 502.32098007 C562.38640401 555.5464306 562.38640401 555.5464306 557.375 572.875 C556.98586426 574.28084351 556.98586426 574.28084351 556.58886719 575.71508789 C550.58658164 596.47798809 540.25235958 614.70078217 525 630 C524.1646875 630.83917969 523.329375 631.67835938 522.46875 632.54296875 C521.6540625 633.35378906 520.839375 634.16460938 520 635 C518.88044922 636.13308594 518.88044922 636.13308594 517.73828125 637.2890625 C490.63830543 663.38533551 454.01126191 670.35050065 417.72146606 670.26069641 C415.95476874 670.26372576 414.18807272 670.26761913 412.42137897 670.27228898 C407.62076286 670.28247663 402.82022219 670.28041103 398.01960015 670.27610838 C392.8211134 670.27362423 387.62264404 670.28267607 382.42416382 670.29014587 C372.26111898 670.30284776 362.09810063 670.30469226 351.93504919 670.30234561 C343.66905686 670.30055742 335.40307252 670.3023228 327.13708115 670.30657005 C325.36761914 670.30746284 325.36761914 670.30746284 323.56241044 670.30837366 C321.16543667 670.30958549 318.76846291 670.31079963 316.37148915 670.31201603 C293.93012168 670.32287396 271.48876925 670.32073723 249.04740094 670.31463119 C228.5502157 670.30946222 208.05307798 670.32072007 187.55590214 670.33972941 C166.46919983 670.35913441 145.38251997 670.36735923 124.29580867 670.36360615 C112.47328366 670.36169833 100.6507991 670.3641409 88.8282814 670.37832069 C78.76487258 670.39026936 68.70152913 670.39160033 58.63811935 670.37953053 C53.5115495 670.37366659 48.385099 670.37247316 43.25853729 670.38453293 C38.55189074 670.39547557 33.845462 670.39219016 29.13882528 670.37827124 C27.44992048 670.3756472 25.76099813 670.37791731 24.07211067 670.38600711 C-12.57698348 670.54916102 -49.41220489 659.16384393 -76 633 C-78.46805588 630.43459621 -80.74741307 627.75572622 -83 625 C-83.7734375 624.07574219 -84.546875 623.15148437 -85.34375 622.19921875 C-102 601.7878477 -102 601.7878477 -102 593 C-102.66 592.67 -103.32 592.34 -104 592 C-104.76147461 590.25219727 -104.76147461 590.25219727 -105.46484375 588.00390625 C-105.72120605 587.18809082 -105.97756836 586.37227539 -106.24169922 585.53173828 C-107.39594086 581.67807254 -108.51628705 577.82201939 -109.5625 573.9375 C-109.77068359 573.20595703 -109.97886719 572.47441406 -110.19335938 571.72070312 C-113.8716038 558.0339441 -114.29492023 544.14590145 -114.25396729 530.0758667 C-114.25627738 528.3232702 -114.25945755 526.57067468 -114.26342177 524.81808114 C-114.27170343 520.04714729 -114.26767492 515.27629435 -114.26144934 510.50536036 C-114.25689833 505.34228793 -114.26392176 500.17922879 -114.26940918 495.01615906 C-114.27827744 484.91834325 -114.27639241 474.82055727 -114.2705839 464.72274032 C-114.26605629 456.50961829 -114.26545925 448.29650458 -114.26763153 440.08338165 C-114.267938 438.91179542 -114.26824446 437.74020919 -114.26856022 436.53312035 C-114.26919971 434.15257452 -114.26984814 431.77202869 -114.2705054 429.39148286 C-114.27620144 407.09557493 -114.26966273 384.79968348 -114.25890467 362.50377825 C-114.24997451 343.40566813 -114.2515182 324.30758233 -114.26074219 305.20947266 C-114.27146575 282.99632786 -114.27564726 260.7831975 -114.26951766 238.57005048 C-114.26888061 236.19732746 -114.26825187 233.82460443 -114.26763153 231.45188141 C-114.26732298 230.28466859 -114.26701443 229.11745577 -114.26669653 227.91487287 C-114.26497549 219.72118642 -114.267872 211.52750918 -114.27259064 203.33382416 C-114.2782229 193.33442284 -114.27663418 183.33505289 -114.26602915 173.33565512 C-114.26080313 168.2415284 -114.25866274 163.1474538 -114.26532745 158.05332756 C-114.27135356 153.37624767 -114.26790386 148.69926748 -114.25737235 144.02219644 C-114.25516614 142.34399986 -114.2562107 140.66579459 -114.26112393 138.98760375 C-114.28520636 130.06677281 -113.98428156 121.23504714 -113.17162704 112.34799576 C-113.10251602 111.53219169 -113.033405 110.71638763 -112.9621997 109.87586223 C-112.41176648 104.4606852 -111.07363762 100.03326115 -109 95 C-108.54815618 93.67930627 -108.10550862 92.3553984 -107.67578125 91.02734375 C-96.80286535 58.12519772 -73.98301679 30.90228569 -43.01904297 14.98144531 C-39.39333727 13.21034635 -35.71827831 11.56626107 -32 10 C-32 9.34 -32 8.68 -32 8 C-30.453125 7.87625 -30.453125 7.87625 -28.875 7.75 C-23.58231094 7.10249017 -18.59942616 5.49942586 -13.5 3.98828125 C-9.04141236 2.72932737 -4.56087151 1.79867796 0 1 C0 0.67 0 0.34 0 0 Z " fill="#0067FE" transform="translate(288,176)"/>
<path d="M0 0 C2.31581011 0.00239045 4.63162219 0.00328848 6.94743347 0.0027771 C11.78287034 0.00589031 16.61800764 0.02233745 21.45336914 0.04931641 C27.60567958 0.08323581 33.7576612 0.09094542 39.91005421 0.08942604 C44.68803459 0.08997394 49.46594524 0.10100875 54.24390221 0.11542892 C56.510164 0.12172773 58.77643358 0.12571931 61.04270363 0.12721634 C76.86254469 0.1491094 92.49763352 0.59016975 107.98046875 4.2109375 C108.71442871 4.38012695 109.44838867 4.54931641 110.20458984 4.72363281 C124.67234681 8.18900068 138.00635362 13.31025682 151.04296875 20.4609375 C152.42742187 21.21697266 152.42742187 21.21697266 153.83984375 21.98828125 C183.00883035 38.7558038 204.68707111 66.22742414 214.04296875 98.4609375 C220.2708833 122.08664667 220.85216632 149.86094133 214.04296875 173.4609375 C213.8610498 174.1302832 213.67913086 174.79962891 213.49169922 175.48925781 C205.2007267 205.52643617 182.74989678 230.6152522 156.24951172 246.23144531 C148.59660795 250.49566565 140.74044865 254.14047763 132.04296875 255.4609375 C132.42928467 256.15316406 132.81560059 256.84539062 133.21362305 257.55859375 C143.4705871 275.94934695 153.56483867 294.42105067 163.54296875 312.96484375 C164.13005615 314.05587402 164.71714355 315.1469043 165.32202148 316.27099609 C166.50946138 318.47812256 167.69647424 320.68547882 168.88305664 322.89306641 C172.08992902 328.85422298 175.32066665 334.80117948 178.57983398 340.73388672 C184.15079792 350.87930644 189.51685269 361.11860479 194.81884766 371.40698242 C198.59851158 378.72399728 202.45940653 385.9891849 206.41796875 393.2109375 C206.9082959 394.10554688 207.39862305 395.00015625 207.90380859 395.921875 C208.84235775 397.63238961 209.78130565 399.34268551 210.72070312 401.05273438 C212.7139725 404.68301671 214.6993976 408.31720124 216.66796875 411.9609375 C217.27898437 413.085 217.89 414.2090625 218.51953125 415.3671875 C221.67283317 421.77081602 223.33596663 427.71448959 221.42578125 434.7265625 C218.72466971 441.75423324 214.025265 446.05060029 207.66796875 449.8984375 C201.21307292 451.28162946 194.87547446 451.41020243 189.08984375 447.92089844 C180.87552936 442.06192896 176.38197604 433.18952987 171.918396 424.42297363 C170.08895487 420.83090301 168.21676029 417.26109361 166.3515625 413.6875 C165.98182312 412.97613892 165.61208374 412.26477783 165.23114014 411.53186035 C162.09521023 405.51292339 158.79785539 399.59636491 155.41796875 393.7109375 C150.61947431 385.33123033 146.01268884 376.86137376 141.48046875 368.3359375 C136.62124947 359.1974464 131.63910028 350.14728746 126.45849609 341.18652344 C122.72683653 334.71265003 119.14497228 328.16661625 115.60546875 321.5859375 C110.806292 312.66406942 105.88504873 303.82167622 100.87646484 295.01586914 C95.13407979 284.90138114 89.58899864 274.684342 84.04296875 264.4609375 C62.26296875 263.9659375 62.26296875 263.9659375 40.04296875 263.4609375 C40.06391602 268.07255859 40.08486328 272.68417969 40.10644531 277.43554688 C40.17286737 292.71046503 40.21716921 307.98538905 40.25021744 323.26041412 C40.27078045 332.51727193 40.29878024 341.77399222 40.34472656 351.03076172 C40.38478721 359.10564667 40.41044698 367.18043195 40.41932273 375.25541353 C40.42450518 379.52503085 40.43655263 383.79436321 40.46588898 388.06388855 C40.49336328 392.09569373 40.50135036 396.12710095 40.49539948 400.15899086 C40.4964856 401.62616971 40.5042468 403.09336413 40.51979065 404.56046104 C40.65675718 418.17421499 39.29377462 432.77540017 30.04296875 443.4609375 C29.44484375 444.15574219 28.84671875 444.85054687 28.23046875 445.56640625 C18.71608168 455.7905359 6.52696874 461.12078385 -7.35546875 461.69921875 C-28.57103383 462.17731599 -47.26345914 456.95611153 -63.5390625 442.7734375 C-67.24842664 439.22587115 -70.90381772 435.59896042 -73.95703125 431.4609375 C-73.95703125 430.8009375 -73.95703125 430.1409375 -73.95703125 429.4609375 C-74.5396875 429.43515625 -75.12234375 429.409375 -75.72265625 429.3828125 C-91.1819107 428.31330433 -105.25243418 421.37355169 -116.95703125 411.4609375 C-117.86195313 410.75517578 -117.86195313 410.75517578 -118.78515625 410.03515625 C-133.8693475 397.97459793 -144.50488925 377.30013625 -146.95385742 358.37646484 C-147.63142569 351.45415045 -147.63142569 351.45415045 -150.56640625 345.3359375 C-152.50523658 343.92009322 -152.50523658 343.92009322 -154.65625 342.76953125 C-171.4090644 333.24119029 -181.33768829 310.25384421 -186.1953125 292.75 C-188.16125797 284.26114829 -188.2315271 275.80818496 -188.26953125 267.1484375 C-188.27447601 266.43395447 -188.27942078 265.71947144 -188.28451538 264.9833374 C-188.32397948 255.638082 -187.69022278 247.00726956 -185.18017578 237.9621582 C-183.84485032 232.93893806 -183.92769213 229.53887375 -186.0625 224.796875 C-193.41508999 205.59666184 -187.27072237 178.77505778 -179.95703125 160.4609375 C-174.32075258 148.02076233 -164.32803389 131.46251772 -152.16992188 124.42675781 C-148.36872738 122.19599629 -148.36872738 122.19599629 -146.28930664 118.46289062 C-145.99194438 116.03377833 -145.88376388 113.65751801 -145.83203125 111.2109375 C-144.53298088 90.43559995 -137.00846894 72.88263951 -122.95703125 57.4609375 C-122.333125 56.75582031 -121.70921875 56.05070312 -121.06640625 55.32421875 C-110.55657567 44.08576546 -96.68085677 36.21283971 -81.76953125 32.7109375 C-75.15281494 30.95428715 -71.88789582 28.05246852 -67.359375 23.046875 C-61.36457111 16.59393162 -53.90627918 12.21645678 -46.14453125 8.2109375 C-45.5417334 7.89366699 -44.93893555 7.57639648 -44.31787109 7.24951172 C-29.77029925 0.060722 -15.87444693 -0.10901604 0 0 Z " fill="#00DAFE" transform="translate(479.95703125,279.5390625)"/>
<path d="M0 0 C1.80307617 0.00483398 1.80307617 0.00483398 3.64257812 0.00976562 C4.88845703 0.01814453 6.13433594 0.02652344 7.41796875 0.03515625 C8.68318359 0.03966797 9.94839844 0.04417969 11.25195312 0.04882812 C14.36983985 0.06059374 17.48763008 0.07703353 20.60546875 0.09765625 C20.67410084 50.44357432 20.72698023 100.78948768 20.75866474 151.13544331 C20.76241696 157.07613546 20.76629992 163.01682752 20.77026367 168.95751953 C20.7710506 170.14022912 20.77183753 171.32293871 20.77264831 172.54148798 C20.78571043 191.70423331 20.80936871 210.8669517 20.83692714 230.02968104 C20.86495891 249.68514403 20.88164029 269.34059288 20.88773423 288.99607503 C20.8918553 301.12940055 20.90488214 313.26264994 20.92921815 325.39595203 C20.94504784 333.71060496 20.94987539 342.0252184 20.94597288 350.33988531 C20.94404702 355.14056256 20.94704698 359.94110656 20.96308517 364.74176025 C20.97765558 369.13504921 20.97843975 373.52811496 20.96816543 377.92141406 C20.9668951 379.51236269 20.97072488 381.10332509 20.9801183 382.69424649 C20.9921349 384.85473495 20.98568307 387.01441475 20.97461224 389.17489052 C20.9757514 390.3755662 20.97689056 391.57624189 20.97806424 392.81330168 C20.39577811 397.94603722 18.45980026 401.16085533 15.015625 404.9375 C11.01689801 408.01012822 6.91190635 407.81428023 2.04296875 407.66015625 C1.15617432 407.64283447 0.26937988 407.6255127 -0.64428711 407.60766602 C-13.69545997 407.1417644 -25.14875304 402.98968435 -34.71484375 393.890625 C-37.82799934 390.51899708 -40.13908419 387.6794043 -42 383.44140625 C-43.29118199 381.13246904 -43.9720569 380.26634547 -46.45385742 379.27539062 C-49.05521886 378.75120259 -51.63349016 378.40189535 -54.26953125 378.09765625 C-71.01021997 375.53077936 -84.38267992 367.74732677 -95.4453125 354.77734375 C-97.80637584 351.5314731 -99.79234992 348.18396584 -101.70703125 344.66015625 C-102.03268066 344.06388428 -102.35833008 343.4676123 -102.69384766 342.85327148 C-106.67127755 335.16833088 -108.58142787 327.74261043 -108.80834961 319.10693359 C-108.8757475 310.71858687 -108.8757475 310.71858687 -112.578125 303.5703125 C-115.32244548 301.91965246 -115.32244548 301.91965246 -118.3125 300.60546875 C-132.24337285 293.79011144 -140.47556921 277.01980941 -145.39453125 263.09765625 C-150.4019898 246.11747725 -150.79794569 225.84616372 -143.19921875 209.53125 C-141.51238334 204.42980117 -143.88534393 199.50988329 -145.45703125 194.59765625 C-151.14723212 174.78442237 -147.38067475 153.27775207 -137.9375 135.328125 C-131.22224356 123.9072874 -121.23679561 114.12490191 -109.39453125 108.09765625 C-108.73453125 108.09765625 -108.07453125 108.09765625 -107.39453125 108.09765625 C-107.41773438 106.88851562 -107.4409375 105.679375 -107.46484375 104.43359375 C-107.79649554 80.30716319 -103.52794303 61.54058429 -86.8203125 43.45703125 C-80.923446 37.72159266 -73.9552252 33.31020408 -66.39453125 30.09765625 C-65.72164063 29.81019531 -65.04875 29.52273438 -64.35546875 29.2265625 C-57.8518749 26.75519684 -51.29908366 26.40713387 -44.39453125 26.09765625 C-44.14574219 25.36289062 -43.89695312 24.628125 -43.640625 23.87109375 C-39.41830516 14.47345397 -28.56678441 7.76959216 -19.42578125 3.8125 C-12.85262011 1.34756457 -7.05027175 -0.03341361 0 0 Z " fill="#0064FE" transform="translate(464.39453125,307.90234375)"/>
<path d="M0 0 C80.90170832 0 80.90170832 0 107.390625 26.32421875 C108.25171875 27.20722656 109.1128125 28.09023438 110 29 C110.73734375 29.72832031 111.4746875 30.45664062 112.234375 31.20703125 C127.99786142 47.67315369 133.69942998 69.75007529 133.25 91.984375 C132.43302257 113.5035606 122.66449716 132.72262721 107.31640625 147.6015625 C76.32350584 174.76765974 41.15919174 172 0 172 C0 115.24 0 58.48 0 0 Z " fill="#0065FE" transform="translate(520,327)"/>
<path d="M0 0 C6.01480317 4.37763781 12.31205009 9.46914656 14 17 C14.88713279 25.25119624 15.26022907 33.09338345 10.421875 40.2421875 C6.7844301 44.73902872 2.96864788 48.01881127 -2 51 C-2.66 51 -3.32 51 -4 51 C-4.13027027 55.51834186 -4.18608727 60.03009614 -4.17700195 64.54980469 C-4.1839208 66.08224812 -4.21015982 67.61474379 -4.25708008 69.14648438 C-4.60709845 78.73033119 -4.60709845 78.73033119 -0.64697266 87.15893555 C2.12184946 89.68861733 4.92265979 91.86179502 8 94 C9.67337556 95.34586752 11.34120429 96.69870312 13 98.0625 C14.24136719 99.00996094 14.24136719 99.00996094 15.5078125 99.9765625 C18 102 18 102 20.3671875 104.4609375 C26.40247565 110.42101957 30.95305618 111.70496343 39.1875 111.8125 C40.03103027 111.79243896 40.87456055 111.77237793 41.74365234 111.75170898 C48.85404285 111.62396488 53.44030436 113.42626323 59.171875 117.5703125 C65.87434046 124.17323639 68.19271349 131.1096471 68.45410156 140.46923828 C68.46841147 143.33712165 68.43206966 146.20277396 68.390625 149.0703125 C68.38314919 150.6030096 68.37746261 152.13571637 68.37347412 153.66842651 C68.35832288 157.67003546 68.31913463 161.67104823 68.2746582 165.67242432 C68.23347611 169.76851338 68.21541453 173.86470034 68.1953125 177.9609375 C68.15262757 185.97426018 68.0823667 193.98698686 68 202 C61.73 199.69 55.46 197.38 49 195 C48.98541748 193.19813232 48.97083496 191.39626465 48.95581055 189.53979492 C48.90417842 183.58846895 48.83889801 177.63742414 48.76428509 171.68635082 C48.71954449 168.07795123 48.68029695 164.46966549 48.65356445 160.86108398 C48.62756759 157.37900415 48.58719205 153.89736161 48.53681374 150.41555214 C48.51199236 148.43974801 48.50209061 146.4637748 48.49235535 144.48783875 C48.47256119 143.28682022 48.45276703 142.0858017 48.43237305 140.84838867 C48.42126999 139.78915695 48.41016693 138.72992523 48.39872742 137.63859558 C48.20861787 134.97575627 48.20861787 134.97575627 46.61807251 133.14959717 C44.31735468 131.51499879 42.74262095 131.75448136 39.94921875 131.91015625 C20.46664227 132.43806718 20.46664227 132.43806718 13.1875 125.5625 C11.5602917 123.9463874 9.99302363 122.30132265 8.45996094 120.59570312 C6.23276115 118.1614259 3.7744671 116.00551271 1.3125 113.8125 C0.43722656 113.008125 -0.43804687 112.20375 -1.33984375 111.375 C-4.88356909 108.21114537 -8.56962542 105.24485108 -12.296875 102.30078125 C-13.18890625 101.54152344 -14.0809375 100.78226563 -15 100 C-15.58449417 99.53506134 -16.16898834 99.07012268 -16.77119446 98.59109497 C-20.36253717 95.45873254 -22.43142996 93.21189691 -22.79467773 88.34985352 C-22.79358254 86.60914423 -22.75479205 84.86815919 -22.68359375 83.12890625 C-22.67368912 82.206577 -22.66378448 81.28424774 -22.65357971 80.33396912 C-22.61461371 77.40847952 -22.52683146 74.48684133 -22.4375 71.5625 C-22.40236287 69.57101801 -22.37042807 67.57947678 -22.34179688 65.58789062 C-22.26491058 60.72379249 -22.14425632 55.86254751 -22 51 C-22.94544678 50.86134521 -23.89089355 50.72269043 -24.86499023 50.57983398 C-30.66342669 49.5073874 -34.14190221 45.43567517 -37.62109375 40.875 C-42.28786067 33.0485807 -42.54752916 23.20934061 -40.37109375 14.4765625 C-37.36176369 7.64821715 -31.27292944 1.85172395 -24.6875 -1.5 C-16.78108217 -4.56186577 -7.45958912 -4.06418993 0 0 Z " fill="#00DAFE" transform="translate(383,477)"/>
<path d="M0 0 C7.26964237 5.17648672 12.18836164 11.09277808 14 20 C15.03395464 28.25597114 12.80967533 36.70308914 7.75 43.375 C5 46 5 46 3.02992249 46.83374023 C0.46900412 47.93812924 -1.09969462 48.93980335 -3 51 C-4.34630038 55.83417161 -4.34766345 60.7001311 -4.37890625 65.6875 C-4.40719477 67.15138692 -4.43650374 68.61525444 -4.46678162 70.07910156 C-4.51915311 73.14937967 -4.53801432 76.21787384 -4.53735352 79.28857422 C-4.54116614 82.41938919 -4.6032511 85.5399092 -4.72192383 88.66845703 C-6.16051769 106.90351216 -6.16051769 106.90351216 0.61157227 122.8190918 C4.05195299 125.75088908 7.71825712 127.90172406 11.77967834 129.85905457 C15.49467842 131.76806282 18.73240044 134.31011994 22.0625 136.8125 C23.21694404 137.63588559 24.37420893 138.45534072 25.53515625 139.26953125 C26.34855469 139.84058594 27.16195312 140.41164063 28 141 C27.39124245 145.60416626 26.15277044 149.56483324 24.4375 153.875 C23.98246094 155.02742187 23.52742188 156.17984375 23.05859375 157.3671875 C22.53458984 158.67042969 22.53458984 158.67042969 22 160 C18.72510964 159.38493066 16.67091405 158.25318554 14.015625 156.26171875 C13.25266113 155.69437012 12.48969727 155.12702148 11.70361328 154.54248047 C10.8939209 153.93033691 10.08422852 153.31819336 9.25 152.6875 C7.99485596 151.74994873 7.99485596 151.74994873 6.71435547 150.79345703 C4.98618535 149.50133362 3.26012391 148.20638535 1.53613281 146.90869141 C-0.84884377 145.11376005 -3.23953659 143.3268122 -5.6328125 141.54296875 C-8.31724141 139.53929895 -11.00124503 137.53510518 -13.6796875 135.5234375 C-14.20288574 135.13075684 -14.72608398 134.73807617 -15.26513672 134.33349609 C-15.8376416 133.89344238 -16.41014648 133.45338867 -17 133 C-17.85045395 132.46568359 -18.7009079 131.93136719 -19.57713318 131.38085938 C-22 129 -22 129 -22.57194519 125.63613892 C-22.57370152 124.28147039 -22.54805685 122.92659669 -22.50073242 121.57275391 C-22.4951532 120.83078262 -22.48957397 120.08881134 -22.48382568 119.32435608 C-22.46928048 117.71623397 -22.44364641 116.10818234 -22.40819359 114.50038528 C-22.35496291 111.95234923 -22.33709332 109.40631389 -22.329422 106.85775757 C-22.30236957 99.61464159 -22.22035641 92.37289264 -22.09301758 85.13085938 C-22.01753585 80.69733685 -21.99078708 76.26565392 -21.99373817 71.8315239 C-21.98493536 70.14487819 -21.9573151 68.45821947 -21.91032982 66.77220535 C-21.77042883 61.68442612 -21.74141966 56.95332983 -23 52 C-25.37398756 49.52748088 -27.34967695 48.36373972 -30.51264954 47.08309937 C-35.79917542 44.78111864 -38.6133856 39.28394904 -40.875 34.1875 C-43.19107601 27.15655498 -42.87997785 19.15954526 -40.2265625 12.265625 C-36.23483569 4.89237165 -30.57236089 -0.83663711 -22.53515625 -3.4453125 C-14.30316336 -5.24645732 -7.36681575 -4.1047127 0 0 Z " fill="#00DBFE" transform="translate(439,371)"/>
<path d="M0 0 C-3.99986946 2.66657964 -8.22567212 3.36528762 -12.84375 4.41210938 C-20.27291046 6.16466509 -26.94500563 9.36450908 -33.75 12.75 C-34.44375732 13.09490479 -35.13751465 13.43980957 -35.85229492 13.79516602 C-41.07386515 16.43521799 -46.00434961 19.38577256 -50.86328125 22.65234375 C-53 24 -53 24 -56 25 C-56.30679688 25.61359375 -56.61359375 26.2271875 -56.9296875 26.859375 C-58.2508276 29.5016552 -59.73522043 30.53468784 -62.125 32.25 C-72.42817147 40.03095509 -80.25527398 49.41838658 -86 61 C-86.99416379 62.51780732 -88.01373684 64.01939319 -89.0625 65.5 C-91.37977061 68.89828022 -92.96816947 71.97586095 -94 76 C-94.66 76 -95.32 76 -96 76 C-96.11472656 76.64453125 -96.22945312 77.2890625 -96.34765625 77.953125 C-97.36745562 82.71625979 -98.7584779 87.37241522 -100.09570312 92.0546875 C-104.3359551 107.080205 -105.15002643 121.49780821 -105.12698364 137.05674744 C-105.12813765 138.76393004 -105.12972705 140.4711124 -105.13171089 142.17829424 C-105.13586614 146.84229908 -105.13383073 151.50628332 -105.13072467 156.17028821 C-105.12845509 161.21142724 -105.13195804 166.25256283 -105.13470459 171.29370117 C-105.13914547 181.16111705 -105.13819304 191.02852531 -105.13529195 200.89594149 C-105.13303016 208.92274522 -105.13272876 216.94954682 -105.13381577 224.97635078 C-105.133969 226.12043664 -105.13412223 227.26452249 -105.13428011 228.44327762 C-105.13459985 230.76785385 -105.13492406 233.09243009 -105.1352527 235.41700632 C-105.13810286 257.20550797 -105.13482833 278.9940054 -105.12945233 300.78250635 C-105.12499011 319.44428044 -105.12575633 338.1060483 -105.13037109 356.76782227 C-105.13573435 378.46638563 -105.13782255 400.1649453 -105.13475883 421.86350924 C-105.1344403 424.1821086 -105.13412593 426.50070796 -105.13381577 428.81930733 C-105.13366149 429.95991828 -105.13350721 431.10052923 -105.13334826 432.27570416 C-105.13248796 440.28051833 -105.13393561 448.28533015 -105.13629532 456.29014397 C-105.13911322 466.06379655 -105.13831355 475.83744112 -105.13301457 485.6110928 C-105.13040345 490.58986238 -105.12932805 495.56861863 -105.13266373 500.54738808 C-105.20982935 524.10052283 -105.20982935 524.10052283 -104.61691284 547.64308167 C-104.58655603 548.44111078 -104.55619921 549.2391399 -104.52492249 550.06135172 C-104.29690354 554.35935434 -103.50689366 557.97730093 -102 562 C-101.53850394 564.20344361 -101.10207308 566.41224798 -100.6875 568.625 C-99.22588158 575.54236244 -97.00760528 581.61762724 -94 588 C-93.71495605 588.61633301 -93.42991211 589.23266602 -93.13623047 589.86767578 C-88.31018307 600.23843477 -82.96774395 611.11456976 -74.734375 619.234375 C-73 621 -73 621 -73 623 C-72.01 623.33 -71.02 623.66 -70 624 C-66.65571025 627.08703669 -63.7773563 630.39972332 -61 634 C-68.17296723 632.93733819 -72.66685764 626.25025405 -77 621 C-78.16595703 619.6078125 -78.16595703 619.6078125 -79.35546875 618.1875 C-96 597.77507154 -96 597.77507154 -96 589 C-96.66 588.67 -97.32 588.34 -98 588 C-98.76147461 586.25219727 -98.76147461 586.25219727 -99.46484375 584.00390625 C-99.72120605 583.18809082 -99.97756836 582.37227539 -100.24169922 581.53173828 C-101.39594086 577.67807254 -102.51628705 573.82201939 -103.5625 569.9375 C-103.77068359 569.20595703 -103.97886719 568.47441406 -104.19335938 567.72070312 C-107.8716038 554.0339441 -108.29492023 540.14590145 -108.25396729 526.0758667 C-108.25627738 524.3232702 -108.25945755 522.57067468 -108.26342177 520.81808114 C-108.27170343 516.04714729 -108.26767492 511.27629435 -108.26144934 506.50536036 C-108.25689833 501.34228793 -108.26392176 496.17922879 -108.26940918 491.01615906 C-108.27827744 480.91834325 -108.27639241 470.82055727 -108.2705839 460.72274032 C-108.26605629 452.50961829 -108.26545925 444.29650458 -108.26763153 436.08338165 C-108.267938 434.91179542 -108.26824446 433.74020919 -108.26856022 432.53312035 C-108.26919971 430.15257452 -108.26984814 427.77202869 -108.2705054 425.39148286 C-108.27620144 403.09557493 -108.26966273 380.79968348 -108.25890467 358.50377825 C-108.24997451 339.40566813 -108.2515182 320.30758233 -108.26074219 301.20947266 C-108.27146575 278.99632786 -108.27564726 256.7831975 -108.26951766 234.57005048 C-108.26888061 232.19732746 -108.26825187 229.82460443 -108.26763153 227.45188141 C-108.26732298 226.28466859 -108.26701443 225.11745577 -108.26669653 223.91487287 C-108.26497549 215.72118642 -108.267872 207.52750918 -108.27259064 199.33382416 C-108.2782229 189.33442284 -108.27663418 179.33505289 -108.26602915 169.33565512 C-108.26080313 164.2415284 -108.25866274 159.1474538 -108.26532745 154.05332756 C-108.27135356 149.37624767 -108.26790386 144.69926748 -108.25737235 140.02219644 C-108.25516614 138.34399986 -108.2562107 136.66579459 -108.26112393 134.98760375 C-108.28520636 126.06677281 -107.98428156 117.23504714 -107.17162704 108.34799576 C-107.10251602 107.53219169 -107.033405 106.71638763 -106.9621997 105.87586223 C-106.41176648 100.4606852 -105.07363762 96.03326115 -103 91 C-102.54815618 89.67930627 -102.10550862 88.3553984 -101.67578125 87.02734375 C-90.80286535 54.12519772 -67.98301679 26.90228569 -37.01904297 10.98144531 C-33.39333727 9.21034635 -29.71827831 7.56626107 -26 6 C-26 5.34 -26 4.68 -26 4 C-24.88625 3.896875 -23.7725 3.79375 -22.625 3.6875 C-19.25319175 3.28240643 -16.22451672 2.49570053 -13 1.4375 C-8.46474633 -0.0087264 -4.73906298 -0.26328128 0 0 Z " fill="#0756F7" transform="translate(282,180)"/>
<path d="M0 0 C0.33 0 0.66 0 1 0 C1.13750344 55.15228227 1.24314434 110.30454713 1.30639198 165.45696727 C1.31389571 171.97660151 1.32166169 178.49623541 1.32958984 185.01586914 C1.33116371 186.31374404 1.33273757 187.61161894 1.33435912 188.94882338 C1.36042662 209.93014943 1.40771176 230.91137627 1.46291678 251.89264358 C1.51913852 273.44095492 1.55237647 294.9892145 1.56453097 316.53759617 C1.57274037 329.82103089 1.59861537 343.10418514 1.6474988 356.38753348 C1.67935371 365.51155218 1.68876923 374.63542709 1.68100826 383.75949729 C1.67718677 389.01405509 1.68280752 394.26812473 1.71523285 399.52259445 C1.95716659 440.80172574 1.95716659 440.80172574 -5 459 C-5.31797963 459.83204079 -5.63595927 460.66408158 -5.96357465 461.52133572 C-12.44660203 478.11918949 -21.42099315 492.38234797 -34 505 C-34.8353125 505.83917969 -35.670625 506.67835938 -36.53125 507.54296875 C-37.3459375 508.35378906 -38.160625 509.16460938 -39 510 C-39.74636719 510.75539063 -40.49273438 511.51078125 -41.26171875 512.2890625 C-58.81494432 529.1921686 -81.38248882 538.33968843 -105 543 C-105.74510588 543.17672239 -106.49021176 543.35344478 -107.2578966 543.5355224 C-110.66730883 544.11303367 -113.91837442 544.12404788 -117.37756062 544.12304783 C-118.11439564 544.12420167 -118.85123067 544.12535552 -119.61039403 544.12654433 C-122.08682769 544.12919751 -124.56319672 544.12469949 -127.03962708 544.12025452 C-128.82998106 544.12069048 -130.62033499 544.12156586 -132.41068858 544.12284368 C-137.33628142 544.12508364 -142.26185258 544.12107415 -147.18744266 544.11606562 C-152.4968795 544.11175418 -157.80631508 544.11320804 -163.11575317 544.1139679 C-172.3166667 544.11449269 -181.51757314 544.11135053 -190.71848488 544.10573006 C-204.02152121 544.09760904 -217.32455411 544.09499922 -230.62759265 544.09374207 C-252.20998233 544.0915525 -273.79236823 544.08489498 -295.37475586 544.07543945 C-316.34220358 544.06626288 -337.30965028 544.05918325 -358.27709961 544.05493164 C-359.56915508 544.05466892 -360.86121054 544.05440619 -362.19241921 544.05413551 C-368.67416888 544.05283049 -375.15591857 544.05156678 -381.63766825 544.05032361 C-435.42511478 544.03995395 -489.2125572 544.02233821 -543 544 C-543 543.67 -543 543.34 -543 543 C-541.6754003 542.99910437 -541.6754003 542.99910437 -540.32404101 542.99819064 C-487.8982508 542.96223761 -435.47251776 542.90550819 -383.0467805 542.82207905 C-376.74131093 542.8120625 -370.4358411 542.80221822 -364.13037109 542.79248047 C-362.87515173 542.7905391 -361.61993237 542.78859772 -360.32667606 542.78659752 C-340.04581683 542.7556404 -319.7649689 542.73861446 -299.48409052 542.72680578 C-278.64876427 542.71436156 -257.81349696 542.68678667 -236.97820795 542.64538693 C-224.13863163 542.62034491 -211.29915317 542.6068759 -198.45955209 542.60857043 C-189.63545011 542.60860036 -180.81144723 542.59383326 -171.98738392 542.56783572 C-166.90878262 542.55329744 -161.83038452 542.54489309 -156.7517662 542.55419731 C-117.64399064 542.73465843 -117.64399064 542.73465843 -80 533 C-78.95070313 532.60941406 -77.90140625 532.21882812 -76.8203125 531.81640625 C-69.62108587 529.02281322 -63.35701037 525.35882728 -57 521 C-56.09765625 520.38511719 -55.1953125 519.77023437 -54.265625 519.13671875 C-46.63964056 514.15651813 -46.63964056 514.15651813 -40.3125 507.75 C-39.879375 507.1725 -39.44625 506.595 -39 506 C-38.34 506 -37.68 506 -37 506 C-36.75378906 505.43023438 -36.50757813 504.86046875 -36.25390625 504.2734375 C-34.79314681 501.62495777 -33.04055451 499.79852724 -30.9375 497.625 C-3.08037699 467.04466464 -0.06514747 427.8612929 -0.21906328 388.565763 C-0.23283961 383.33371223 -0.21154446 378.1017771 -0.19483948 372.86975098 C-0.1706494 363.83833968 -0.16792315 354.8071357 -0.18042374 345.77570343 C-0.19846465 332.71834885 -0.18312743 319.66119478 -0.16004442 306.60385582 C-0.12346831 285.41134369 -0.11331223 264.21890657 -0.12011719 243.02636719 C-0.12666415 222.45863295 -0.12055307 201.89096563 -0.09765625 181.32324219 C-0.09554027 179.41662541 -0.09554027 179.41662541 -0.09338154 177.47149113 C-0.08622631 171.09388615 -0.07882473 164.71628148 -0.07130075 158.33867693 C-0.00935184 105.55911274 0.00957415 52.77959639 0 0 Z " fill="#0041F2" transform="translate(847,301)"/>
<path d="M0 0 C0.33 0 0.66 0 1 0 C3.33684117 24.9695807 -8.86421578 53.53673668 -24.4375 72.77587891 C-27.48242309 76.32592721 -30.69765459 79.68750913 -34 83 C-34.8353125 83.83917969 -35.670625 84.67835938 -36.53125 85.54296875 C-37.3459375 86.35378906 -38.160625 87.16460938 -39 88 C-39.74636719 88.75539063 -40.49273438 89.51078125 -41.26171875 90.2890625 C-58.81494432 107.1921686 -81.38248882 116.33968843 -105 121 C-105.88429688 121.19335938 -106.76859375 121.38671875 -107.6796875 121.5859375 C-110.05233964 122.00934007 -112.27885403 122.16705309 -114.6875 122.1875 C-115.45449219 122.20167969 -116.22148438 122.21585938 -117.01171875 122.23046875 C-119 122 -119 122 -121 120 C-120.29093506 119.90501221 -119.58187012 119.81002441 -118.85131836 119.7121582 C-105.43718543 117.87974523 -92.62183899 116.07044392 -80 111 C-78.95070313 110.60941406 -77.90140625 110.21882812 -76.8203125 109.81640625 C-69.62108587 107.02281322 -63.35701037 103.35882728 -57 99 C-55.64648438 98.07767578 -55.64648438 98.07767578 -54.265625 97.13671875 C-46.63964056 92.15651813 -46.63964056 92.15651813 -40.3125 85.75 C-39.879375 85.1725 -39.44625 84.595 -39 84 C-38.34 84 -37.68 84 -37 84 C-36.75378906 83.43023438 -36.50757813 82.86046875 -36.25390625 82.2734375 C-34.79314681 79.62495777 -33.04055451 77.79852724 -30.9375 75.625 C-21.12973438 64.85846242 -14.70945058 52.29367154 -9 39 C-8.50016602 37.84564453 -8.50016602 37.84564453 -7.99023438 36.66796875 C-6.87733727 33.66951224 -6.1892708 30.72674526 -5.52734375 27.59765625 C-5.26759766 26.37755859 -5.00785156 25.15746094 -4.74023438 23.90039062 C-4.47533203 22.63388672 -4.21042969 21.36738281 -3.9375 20.0625 C-3.5343457 18.16854492 -3.5343457 18.16854492 -3.12304688 16.23632812 C-1.98026452 10.8358978 -0.87556104 5.45107357 0 0 Z " fill="#0451F7" transform="translate(847,723)"/>
<path d="M0 0 C28.476184 0.1306247 56.08450264 17.65940682 75.9375 36.5625 C94.8106251 55.94570956 111.18985618 84.74362828 111.25 112.5 C111.18767391 114.33416766 111.11291605 116.16825069 111 118 C108.83343106 114.75014658 108.59365983 113.12394783 108.125 109.3125 C106.65897343 99.06176736 104.64908199 88.5189887 100.0390625 79.17578125 C99 77 99 77 98.0234375 74.35546875 C94.71372105 65.46209397 89.61290558 58.21745691 84.04394531 50.61889648 C83 49 83 49 82 46 C81.34 46 80.68 46 80 46 C78.51953125 44.49609375 78.51953125 44.49609375 76.8125 42.4375 C68.81212099 33.11460936 59.37826623 24.11033794 48 19 C48 18.34 48 17.68 48 17 C46.741875 16.608125 45.48375 16.21625 44.1875 15.8125 C40.57447761 14.61755344 37.18531177 13.19692146 33.75 11.5625 C22.94558324 6.56545725 11.64144503 4.12540905 0 2 C0 1.34 0 0.68 0 0 Z " fill="#0352F6" transform="translate(736,178)"/>
<path d="M0 0 C2.9640585 1.80767693 5.42197673 3.84395345 7 7 C7.59968751 12.27725011 6.27164725 14.88707202 3 19 C-0.7373856 21.4915904 -2.57331583 21.45793285 -7 21 C-10.37202113 18.90185352 -12.91984861 16.88854502 -14 13 C-14 7.79424922 -13.83875273 5.95857455 -10.375 2 C-6.39035621 -0.36127039 -4.55056669 -0.8126012 0 0 Z " fill="#005CFE" transform="translate(373,492)"/>
<path d="M0 0 C2.41520217 1.87849058 3.13944323 2.94836816 4.25 5.75 C4.57809026 9.57088448 4.30665367 13.25622901 2.05078125 16.4453125 C-0.37652987 18.67512587 -2.54462534 19.70721361 -5.75 20.375 C-9.72966915 19.54590226 -12.40647478 18.04463123 -14.75 14.75 C-16.14930105 10.45103621 -16.25890519 7.00887074 -14.5625 2.8125 C-10.47297011 -1.84110298 -5.67426146 -2.57920976 0 0 Z " fill="#0062FE" transform="translate(430.75,386.25)"/>
<path d="M0 0 C0.66 0 1.32 0 2 0 C2 0.66 2 1.32 2 2 C3.0828125 2.37125 3.0828125 2.37125 4.1875 2.75 C7 4 7 4 9.125 5.75 C29.7447487 21.88719464 56.92029539 25.70797465 82 29 C82 29.33 82 29.66 82 30 C53.44329037 30.94373459 22.91927399 22.03335077 1 3 C0.67 2.01 0.34 1.02 0 0 Z " fill="#0453F8" transform="translate(222,815)"/>
<path d="M0 0 C0.66 0.33 1.32 0.66 2 1 C3.14346098 4.43038294 3.120116 7.0563175 3.11352539 10.67456055 C3.11367142 11.347995 3.11381744 12.02142944 3.1139679 12.715271 C3.11327175 14.93911979 3.10549332 17.16288461 3.09765625 19.38671875 C3.09579101 20.92942764 3.09436761 22.47213711 3.09336853 24.0148468 C3.08955169 28.07383868 3.07972851 32.13279473 3.06866455 36.19177246 C3.05843252 40.33422359 3.05386707 44.4766805 3.04882812 48.61914062 C3.03810551 56.74611018 3.02103907 64.87305063 3 73 C1.35 72.34 -0.3 71.68 -2 71 C-1.01 70.505 -1.01 70.505 0 70 C0 46.9 0 23.8 0 0 Z " fill="#00EEFE" transform="translate(448,606)"/>
<path d="M0 0 C0.33 0 0.66 0 1 0 C1.00298096 0.9472998 1.00596191 1.89459961 1.0090332 2.87060547 C1.04625242 6.43363854 1.13232487 9.98886882 1.25024414 13.54980469 C1.29125814 15.0816375 1.31353271 16.61410409 1.31567383 18.14648438 C1.28619334 27.75219441 1.28619334 27.75219441 5.38427734 36.15893555 C8.14474667 38.68098596 10.9380636 40.85930753 14 43 C15.67319734 44.34608908 17.34099112 45.69896244 19 47.0625 C19.82113281 47.69414063 20.64226562 48.32578125 21.48828125 48.9765625 C24 51 24 51 26.54296875 53.4609375 C33.3631319 59.84791451 38.07185419 61.0165969 47.10546875 61.09765625 C48.06066406 61.06542969 49.01585937 61.03320312 50 61 C49.505 61.99 49.505 61.99 49 63 C46.95954189 63.10898589 44.91736517 63.18603331 42.875 63.25 C41.73804688 63.29640625 40.60109375 63.3428125 39.4296875 63.390625 C32.58362364 62.61089107 27.79421937 57.22807088 22.8125 52.8125 C17.40393441 48.05953837 11.93009009 43.45192954 6.26953125 39 C2.56861221 35.73860491 0.19928267 33.53822654 -0.45410156 28.49487305 C-0.4331543 27.18043213 -0.41220703 25.86599121 -0.390625 24.51171875 C-0.38496521 23.80852005 -0.37930542 23.10532135 -0.37347412 22.3808136 C-0.35119769 20.14899752 -0.30102373 17.91882539 -0.25 15.6875 C-0.22992343 14.16864309 -0.21167468 12.64976084 -0.1953125 11.13085938 C-0.15136357 7.42004455 -0.08239921 3.7101829 0 0 Z " fill="#00EDFE" transform="translate(377,528)"/>
<path d="M0 0 C3.28905885 3.18296018 6.34607942 6.50472335 9.375 9.9375 C15.4762516 16.97919163 15.4762516 16.97919163 23.2109375 21.9453125 C25.76537697 23.08360658 27.22912666 23.81006502 29 26 C29.70226591 31.08462295 29.46169931 35.90207007 29 41 C28.67 41 28.34 41 28 41 C27.97164063 40.07058594 27.94328125 39.14117188 27.9140625 38.18359375 C27.4992533 30.81380123 27.4992533 30.81380123 23.8515625 24.6875 C21.29740152 22.96938571 18.70905038 21.4593646 16 20 C9.11938877 14.90834769 2.86077906 8.17365447 0 0 Z " fill="#00EBFE" transform="translate(326,588)"/>
<path d="M0 0 C0.66 0.66 1.32 1.32 2 2 C1.38511719 2.03738281 0.77023437 2.07476562 0.13671875 2.11328125 C-1.07564453 2.21189453 -1.07564453 2.21189453 -2.3125 2.3125 C-3.11300781 2.37050781 -3.91351563 2.42851562 -4.73828125 2.48828125 C-7.45204294 3.10227569 -8.39812177 3.73702917 -10 6 C-10.47307456 8.17495081 -10.47307456 8.17495081 -10.375 10.5 C-10.38273437 11.2734375 -10.39046875 12.046875 -10.3984375 12.84375 C-10.14028979 15.04780688 -10.14028979 15.04780688 -8.80078125 16.76953125 C-6.3673366 18.43229712 -4.73064655 18.30119402 -1.8125 18.1875 C-0.91144531 18.16042969 -0.01039063 18.13335937 0.91796875 18.10546875 C1.60503906 18.07066406 2.29210937 18.03585937 3 18 C0.95094193 20.27270157 0.31239106 20.94446381 -2.8125 21.5 C-6.19121079 20.97000615 -8.26866075 20.02667783 -10.796875 17.69140625 C-13.11498524 14.43250452 -13.31161929 10.90232344 -13 7 C-11.77958841 3.98108712 -10.80119643 2.58017673 -8.1875 0.6875 C-5.33395733 -0.2093277 -2.97223418 -0.25845515 0 0 Z " fill="#0041FE" transform="translate(428,385)"/>
<path d="M0 0 C3.28829883 1.64414941 4.17358729 5.22901675 5.6875 8.4375 C8.92001115 15.09431895 12.50008486 21.10500628 17 27 C17.87591797 28.17949219 17.87591797 28.17949219 18.76953125 29.3828125 C20.16881861 31.26382174 21.57842814 33.1358142 23 35 C14.04507585 31.57786652 8.15721216 18.93812163 3.875 10.875 C3.48481689 10.14079834 3.09463379 9.40659668 2.69262695 8.65014648 C0 3.40364997 0 3.40364997 0 0 Z " fill="#0044FE" transform="translate(336,653)"/>
<path d="M0 0 C11.81979396 3.55976251 23.55406755 12.19647162 31 22 C27.77054464 20.54601444 25.32501691 18.71823101 22.625 16.4375 C17.88634832 12.56748342 12.9303392 9.26821818 7.73486328 6.05834961 C4.85433138 4.26461924 2.2521891 2.55893887 0 0 Z " fill="#00ECFE" transform="translate(627,299)"/>
<path d="M0 0 C8.52350135 2.39723475 14.53621954 10.47912449 20 17 C21.14474279 18.33426974 22.29050829 19.66766302 23.4375 21 C24.283125 21.99 25.12875 22.98 26 24 C25.67 24.66 25.34 25.32 25 26 C24.23816406 25.16597656 23.47632813 24.33195312 22.69140625 23.47265625 C16.60315376 16.82921688 10.43155725 10.31485561 4 4 C2.66550876 2.66782558 1.33184607 1.33481894 0 0 Z " fill="#0048FE" transform="translate(647,310)"/>
<path d="M0 0 C3.59896614 -0.87907941 6.42660806 -1.06951871 10 0 C12.71767542 3.01568566 14.70651845 6.19142532 16.81640625 9.640625 C19.47399965 13.94168278 22.97661344 16.98520081 27 20 C22.73236452 20 21.21680596 18.00049651 18.140625 15.21484375 C9 5.75729927 9 5.75729927 9 1 C6.03 1 3.06 1 0 1 C0 0.67 0 0.34 0 0 Z " fill="#00ECFE" transform="translate(410,687)"/>
<path d="M0 0 C0 3 0 3 -1.9375 5.25 C-12.31364679 15 -12.31364679 15 -16 15 C-16 14.34 -16 13.68 -16 13 C-14.27734375 11.73828125 -14.27734375 11.73828125 -11.9375 10.3125 C-7.34688928 7.37073205 -3.68105829 4.0006357 0 0 Z " fill="#0045FE" transform="translate(511,721)"/>
<path d="M0 0 C0.33 0.66 0.66 1.32 1 2 C-2.66666667 5.66666667 -6.33333333 9.33333333 -10 13 C-10.66 12.67 -11.32 12.34 -12 12 C-8.04 8.04 -4.08 4.08 0 0 Z " fill="#003CFE" transform="translate(669,498)"/>
<path d="M0 0 C0.33 0 0.66 0 1 0 C1.58267717 9.90551181 1.58267717 9.90551181 -2 14 C-4.1875 14.8125 -4.1875 14.8125 -6 15 C-5.38125 14.38125 -4.7625 13.7625 -4.125 13.125 C-1.28956063 8.95523622 -0.72665455 4.92404073 0 0 Z " fill="#00EBFE" transform="translate(435,391)"/>
<path d="M0 0 C1.98 0 3.96 0 6 0 C6 0.33 6 0.66 6 1 C4.02 1 2.04 1 0 1 C0 0.67 0 0.34 0 0 Z " fill="#096BF6" transform="translate(580,847)"/>
<path d="M0 0 C1.65 0 3.3 0 5 0 C5 0.33 5 0.66 5 1 C3.35 1 1.7 1 0 1 C0 0.67 0 0.34 0 0 Z " fill="#0A6CF5" transform="translate(557,847)"/>
<path d="M0 0 C4 1 4 1 4 1 Z " fill="#0B6DF6" transform="translate(675,847)"/>
<path d="M0 0 C3 1 3 1 3 1 Z " fill="#0B6EF5" transform="translate(700,847)"/>
<path d="M0 0 C3 1 3 1 3 1 Z " fill="#0A6DF5" transform="translate(692,847)"/>
<path d="M0 0 C3 1 3 1 3 1 Z " fill="#086FF5" transform="translate(688,847)"/>
<path d="M0 0 C3 1 3 1 3 1 Z " fill="#0C6DF4" transform="translate(684,847)"/>
<path d="M0 0 C3 1 3 1 3 1 Z " fill="#0A6BF5" transform="translate(680,847)"/>
<path d="M0 0 C3 1 3 1 3 1 Z " fill="#0A6CF5" transform="translate(668,847)"/>
<path d="M0 0 C3 1 3 1 3 1 Z " fill="#0A6CF6" transform="translate(660,847)"/>
<path d="M0 0 C3 1 3 1 3 1 Z " fill="#0B6BF5" transform="translate(644,847)"/>
<path d="M0 0 C3 1 3 1 3 1 Z " fill="#096FF7" transform="translate(628,847)"/>
<path d="M0 0 C3 1 3 1 3 1 Z " fill="#0B6DF6" transform="translate(596,847)"/>
<path d="M0 0 C3 1 3 1 3 1 Z " fill="#096CF7" transform="translate(588,847)"/>
<path d="M0 0 C3 1 3 1 3 1 Z " fill="#0A6CF6" transform="translate(564,847)"/>
<path d="M0 0 C3 1 3 1 3 1 Z " fill="#096EF5" transform="translate(552,847)"/>
<path d="M0 0 C3 1 3 1 3 1 Z " fill="#0B6EF5" transform="translate(547,847)"/>
<path d="M0 0 C3 1 3 1 3 1 Z " fill="#096CF4" transform="translate(528,847)"/>
<path d="M0 0 C3 1 3 1 3 1 Z " fill="#0A6CF4" transform="translate(516,847)"/>
<path d="M0 0 C3 1 3 1 3 1 Z " fill="#0A6CF4" transform="translate(476,847)"/>
<path d="M0 0 C3 1 3 1 3 1 Z " fill="#0A6DF5" transform="translate(444,847)"/>
<path d="M0 0 C3 1 3 1 3 1 Z " fill="#0A6DF4" transform="translate(436,847)"/>
<path d="M0 0 C3 1 3 1 3 1 Z " fill="#0B6CF6" transform="translate(404,847)"/>
<path d="M0 0 C3 1 3 1 3 1 Z " fill="#0B6EF6" transform="translate(356,847)"/>
<path d="M0 0 C3 1 3 1 3 1 Z " fill="#0A6CF4" transform="translate(348,847)"/>
<path d="M0 0 C3 1 3 1 3 1 Z " fill="#096CF3" transform="translate(344,847)"/>
<path d="M0 0 C3 1 3 1 3 1 Z " fill="#0B6DF3" transform="translate(332,847)"/>
<path d="M0 0 C3 1 3 1 3 1 Z " fill="#0C6CF7" transform="translate(324,847)"/>
<path d="" fill="#126AEE" transform="translate(0,0)"/>
<path d="" fill="#116AF1" transform="translate(0,0)"/>
<path d="M0 0 C2 1 2 1 2 1 Z " fill="#096CF4" transform="translate(712,847)"/>
<path d="M0 0 C2 1 2 1 2 1 Z " fill="#0B6CF5" transform="translate(709,847)"/>
<path d="M0 0 C2 1 2 1 2 1 Z " fill="#0A6BF6" transform="translate(704,847)"/>
<path d="M0 0 C2 1 2 1 2 1 Z " fill="#0A6DF6" transform="translate(696,847)"/>
<path d="M0 0 C2 1 2 1 2 1 Z " fill="#0A6DF6" transform="translate(672,847)"/>
<path d="M0 0 C2 1 2 1 2 1 Z " fill="#086CF6" transform="translate(664,847)"/>
<path d="M0 0 C2 1 2 1 2 1 Z " fill="#076FF6" transform="translate(656,847)"/>
<path d="M0 0 C2 1 2 1 2 1 Z " fill="#096DF5" transform="translate(648,847)"/>
<path d="M0 0 C2 1 2 1 2 1 Z " fill="#096BF6" transform="translate(640,847)"/>
<path d="M0 0 C2 1 2 1 2 1 Z " fill="#0C6BF7" transform="translate(636,847)"/>
<path d="M0 0 C2 1 2 1 2 1 Z " fill="#086CF7" transform="translate(632,847)"/>
<path d="M0 0 C2 1 2 1 2 1 Z " fill="#066DF7" transform="translate(624,847)"/>
<path d="M0 0 C2 1 2 1 2 1 Z " fill="#0A6EF6" transform="translate(620,847)"/>
<path d="M0 0 C2 1 2 1 2 1 Z " fill="#086CF6" transform="translate(616,847)"/>
<path d="M0 0 C2 1 2 1 2 1 Z " fill="#0A6EF6" transform="translate(612,847)"/>
<path d="M0 0 C2 1 2 1 2 1 Z " fill="#096DF6" transform="translate(608,847)"/>
<path d="M0 0 C2 1 2 1 2 1 Z " fill="#0A6CF4" transform="translate(605,847)"/>
<path d="M0 0 C2 1 2 1 2 1 Z " fill="#086DF5" transform="translate(600,847)"/>
<path d="M0 0 C2 1 2 1 2 1 Z " fill="#096EF6" transform="translate(592,847)"/>
<path d="M0 0 C2 1 2 1 2 1 Z " fill="#086DF5" transform="translate(576,847)"/>
<path d="M0 0 C2 1 2 1 2 1 Z " fill="#0B6DF6" transform="translate(572,847)"/>
<path d="M0 0 C2 1 2 1 2 1 Z " fill="#086EF5" transform="translate(544,847)"/>
<path d="M0 0 C2 1 2 1 2 1 Z " fill="#0B6BF6" transform="translate(540,847)"/>
<path d="M0 0 C2 1 2 1 2 1 Z " fill="#096CF4" transform="translate(536,847)"/>
<path d="M0 0 C2 1 2 1 2 1 Z " fill="#076CF5" transform="translate(520,847)"/>
<path d="M0 0 C2 1 2 1 2 1 Z " fill="#086CF5" transform="translate(512,847)"/>
<path d="M0 0 C2 1 2 1 2 1 Z " fill="#096EF6" transform="translate(508,847)"/>
<path d="M0 0 C2 1 2 1 2 1 Z " fill="#096DF4" transform="translate(504,847)"/>
<path d="M0 0 C2 1 2 1 2 1 Z " fill="#086EF5" transform="translate(496,847)"/>
<path d="M0 0 C2 1 2 1 2 1 Z " fill="#0A6DF8" transform="translate(492,847)"/>
<path d="M0 0 C2 1 2 1 2 1 Z " fill="#096DF7" transform="translate(488,847)"/>
<path d="M0 0 C2 1 2 1 2 1 Z " fill="#0A6DF7" transform="translate(484,847)"/>
<path d="M0 0 C2 1 2 1 2 1 Z " fill="#086EF6" transform="translate(480,847)"/>
<path d="M0 0 C2 1 2 1 2 1 Z " fill="#096CF4" transform="translate(472,847)"/>
<path d="M0 0 C2 1 2 1 2 1 Z " fill="#086CF6" transform="translate(464,847)"/>
<path d="M0 0 C2 1 2 1 2 1 Z " fill="#0B6DF5" transform="translate(460,847)"/>
<path d="M0 0 C2 1 2 1 2 1 Z " fill="#086DF5" transform="translate(456,847)"/>
<path d="M0 0 C2 1 2 1 2 1 Z " fill="#0B6CF5" transform="translate(452,847)"/>
<path d="M0 0 C2 1 2 1 2 1 Z " fill="#096CF6" transform="translate(448,847)"/>
<path d="M0 0 C2 1 2 1 2 1 Z " fill="#096DF5" transform="translate(440,847)"/>
<path d="M0 0 C2 1 2 1 2 1 Z " fill="#086DF4" transform="translate(432,847)"/>
<path d="M0 0 C2 1 2 1 2 1 Z " fill="#0A6CF3" transform="translate(429,847)"/>
<path d="M0 0 C2 1 2 1 2 1 Z " fill="#096DF5" transform="translate(424,847)"/>
<path d="M0 0 C2 1 2 1 2 1 Z " fill="#0C70F4" transform="translate(420,847)"/>
<path d="M0 0 C2 1 2 1 2 1 Z " fill="#096EF6" transform="translate(416,847)"/>
<path d="M0 0 C2 1 2 1 2 1 Z " fill="#086CF5" transform="translate(408,847)"/>
<path d="M0 0 C2 1 2 1 2 1 Z " fill="#096EF6" transform="translate(400,847)"/>
<path d="M0 0 C2 1 2 1 2 1 Z " fill="#096DF5" transform="translate(392,847)"/>
<path d="M0 0 C2 1 2 1 2 1 Z " fill="#0B6CF6" transform="translate(388,847)"/>
<path d="M0 0 C2 1 2 1 2 1 Z " fill="#0A6CF4" transform="translate(384,847)"/>
<path d="M0 0 C2 1 2 1 2 1 Z " fill="#096EF4" transform="translate(376,847)"/>
<path d="M0 0 C2 1 2 1 2 1 Z " fill="#086EF6" transform="translate(360,847)"/>
<path d="M0 0 C2 1 2 1 2 1 Z " fill="#0A6DF5" transform="translate(352,847)"/>
<path d="M0 0 C2 1 2 1 2 1 Z " fill="#0A6DF5" transform="translate(340,847)"/>
<path d="M0 0 C2 1 2 1 2 1 Z " fill="#096DF5" transform="translate(336,847)"/>
<path d="M0 0 C2 1 2 1 2 1 Z " fill="#096DF4" transform="translate(328,847)"/>
<path d="M0 0 C2 1 2 1 2 1 Z " fill="#0A6FF7" transform="translate(320,847)"/>
<path d="M0 0 C2 1 2 1 2 1 Z " fill="#0B6DF5" transform="translate(316,847)"/>
<path d="M0 0 C2 1 2 1 2 1 Z " fill="#0A6DF5" transform="translate(312,847)"/>
<path d="M0 0 C2 1 2 1 2 1 Z " fill="#0C6BF3" transform="translate(308,847)"/>
<path d="M0 0 C2 1 2 1 2 1 Z " fill="#0A6CF2" transform="translate(304,847)"/>
<path d="M0 0 C2 1 2 1 2 1 Z " fill="#0D69F2" transform="translate(731,846)"/>
<path d="M0 0 C2 1 2 1 2 1 Z " fill="#0B6BF3" transform="translate(728,846)"/>
<path d="M0 0 C2 1 2 1 2 1 Z " fill="#1169EC" transform="translate(233,827)"/>
<path d="" fill="#096BF0" transform="translate(0,0)"/>
<path d="" fill="#136EED" transform="translate(0,0)"/>
<path d="" fill="#0B70F1" transform="translate(0,0)"/>
<path d="" fill="#0F6DF0" transform="translate(0,0)"/>
<path d="" fill="#0B6BF3" transform="translate(0,0)"/>
<path d="" fill="#0B6DF5" transform="translate(0,0)"/>
<path d="" fill="#086CF5" transform="translate(0,0)"/>
<path d="" fill="#096CF4" transform="translate(0,0)"/>
<path d="" fill="#0B6DF6" transform="translate(0,0)"/>
<path d="" fill="#0A6DF5" transform="translate(0,0)"/>
<path d="" fill="#0B6DF5" transform="translate(0,0)"/>
<path d="" fill="#0B6CF5" transform="translate(0,0)"/>
<path d="" fill="#0B6DF4" transform="translate(0,0)"/>
<path d="" fill="#0B6DF4" transform="translate(0,0)"/>
<path d="" fill="#0E6EF4" transform="translate(0,0)"/>
<path d="" fill="#0D6CF4" transform="translate(0,0)"/>
<path d="" fill="#0B70F6" transform="translate(0,0)"/>
<path d="" fill="#0E68F1" transform="translate(0,0)"/>
<path d="" fill="#0E6DEF" transform="translate(0,0)"/>
<path d="" fill="#106BEE" transform="translate(0,0)"/>
<path d="" fill="#0F6AEF" transform="translate(0,0)"/>
<path d="" fill="#0F6AF0" transform="translate(0,0)"/>
<path d="" fill="#1269EB" transform="translate(0,0)"/>
<path d="" fill="#106CEF" transform="translate(0,0)"/>
<path d="" fill="#126AED" transform="translate(0,0)"/>
<path d="" fill="#116AEC" transform="translate(0,0)"/>
<path d="" fill="#136DEA" transform="translate(0,0)"/>
<path d="" fill="#0D6AEF" transform="translate(0,0)"/>
<path d="" fill="#1267EA" transform="translate(0,0)"/>
<path d="" fill="#116AF0" transform="translate(0,0)"/>
<path d="" fill="#0D6EF3" transform="translate(0,0)"/>
<path d="" fill="#116AED" transform="translate(0,0)"/>
<path d="" fill="#166CED" transform="translate(0,0)"/>
<path d="" fill="#146CED" transform="translate(0,0)"/>
<path d="" fill="#136EEE" transform="translate(0,0)"/>
<path d="" fill="#126DF2" transform="translate(0,0)"/>
<path d="" fill="#146EF0" transform="translate(0,0)"/>
<path d="" fill="#136DF0" transform="translate(0,0)"/>
<path d="" fill="#0F6EF1" transform="translate(0,0)"/>
<path d="" fill="#116EED" transform="translate(0,0)"/>
<path d="" fill="#156AEC" transform="translate(0,0)"/>
<path d="" fill="#0E6DEC" transform="translate(0,0)"/>
<path d="" fill="#0A68F0" transform="translate(0,0)"/>
<path d="" fill="#0D65EF" transform="translate(0,0)"/>
<path d="" fill="#106BED" transform="translate(0,0)"/>
<path d="" fill="#0B73F0" transform="translate(0,0)"/>
<path d="" fill="#126AEF" transform="translate(0,0)"/>
<path d="" fill="#1166EA" transform="translate(0,0)"/>
<path d="" fill="#0B6CF1" transform="translate(0,0)"/>
</svg>
