<?xml version="1.0" encoding="UTF-8"?>
<svg version="1.1" xmlns="http://www.w3.org/2000/svg" width="1024" height="1024">
<path d="M0 0 C3.18009296 4.1941632 3.40269005 7.83860245 3.29296875 12.92578125 C3.28872391 13.67337204 3.28447906 14.42096283 3.28010559 15.19120789 C3.26339056 17.56534732 3.22575347 19.93861967 3.1875 22.3125 C3.17244381 23.92772206 3.15875703 25.54295751 3.14648438 27.15820312 C3.1135108 31.10579988 3.06177969 35.05275322 3 39 C3.87624023 38.97905273 4.75248047 38.95810547 5.65527344 38.93652344 C8.96544302 38.86757975 12.2748293 38.81783436 15.58544922 38.78027344 C17.00712262 38.76038989 18.42871683 38.73327273 19.85009766 38.69824219 C31.60829226 38.4161119 42.75898196 39.44011112 52.1875 47.23828125 C60.85030683 55.65838013 64.80722951 64.53544054 65.25 76.625 C65.0865491 87.49448507 61.95886765 97.00166965 54.23046875 104.78125 C51.0522874 107.60630009 47.7421265 109.95884009 44 112 C46.02633069 116.32371893 46.02633069 116.32371893 49 120 C50.18771659 122.2580925 51.32835972 124.51650897 52.4375 126.8125 C54.46438574 130.98396163 56.55162927 135.05613795 59 139 C65.06035105 148.81606155 65.06035105 148.81606155 64 154 C62.20006226 156.69990662 60.916227 158.5418865 58 160 C52.21448468 160.55988858 52.21448468 160.55988858 50 160 C47.14037342 156.76367122 44.9947548 153.41957987 42.9765625 149.61328125 C42.15671875 148.0809082 42.15671875 148.0809082 41.3203125 146.51757812 C40.76085937 145.45990234 40.20140625 144.40222656 39.625 143.3125 C36.0315008 136.54950093 32.40223056 129.85561048 28.37255859 123.34057617 C26.78463635 120.63274789 25.40383981 117.80767962 24 115 C17.07 114.67 10.14 114.34 3 114 C3.33 115.65 3.66 117.3 4 119 C4.09627008 121.4763043 4.13809609 123.95494091 4.14526367 126.43310547 C4.14862228 127.16386292 4.1519809 127.89462036 4.15544128 128.64752197 C4.16491039 131.05409462 4.16689234 133.4605974 4.16796875 135.8671875 C4.17118408 137.54721098 4.17454836 139.22723418 4.17805481 140.90725708 C4.18403593 144.42597096 4.18589575 147.94466031 4.18530273 151.46337891 C4.18520116 155.96119529 4.1988533 160.45885366 4.21607494 164.95663261 C4.22722022 168.42600215 4.22922117 171.89533379 4.22869301 175.36471939 C4.22986931 177.02242706 4.23427139 178.68013582 4.24202538 180.33782578 C4.25187669 182.6613634 4.24892716 184.98456181 4.24291992 187.30810547 C4.24434494 188.627612 4.24576996 189.94711853 4.24723816 191.30661011 C3.74235148 198.84890596 1.60434565 204.02580804 -4 209 C-8.68156294 211.44255458 -12.99734815 211.38349891 -18 210 C-22.3668796 207.60249748 -25.58192859 204.59335712 -29 201 C-29.928125 200.13375 -30.85625 199.2675 -31.8125 198.375 C-34 196 -34 196 -34 193 C-34.66 193 -35.32 193 -36 193 C-40.15735888 184.52443205 -43.06643639 177.67692277 -42 168 C-43.32 168 -44.64 168 -46 168 C-46.05460454 170.18721529 -46.0930633 172.37483631 -46.125 174.5625 C-46.14820313 175.78066406 -46.17140625 176.99882813 -46.1953125 178.25390625 C-45.81982521 185.45575244 -44.00354029 189.63648151 -39.0625 194.875 C-37.74958984 196.29425781 -37.74958984 196.29425781 -36.41015625 197.7421875 C-34.13753671 200.1862659 -34.13753671 200.1862659 -31 201 C-31 202.98 -31 204.96 -31 207 C-41.46375589 208.74395932 -49.24870452 208.50565673 -58.125 202.3125 C-63.24908712 198.25341922 -66.96479652 193.45860827 -69.5 187.4375 C-71.54592234 183.58942479 -75.0154224 182.30164197 -78.8125 180.5625 C-87.94134078 176.37972011 -93.44557923 170.41296354 -97 161 C-98.53609817 156.16348518 -99.05148081 151.99450993 -98.6875 146.9375 C-98.60833992 143.91079095 -98.6639504 142.4821986 -100.41015625 139.9765625 C-101.65894776 138.67739511 -102.91440986 137.38461327 -104.17578125 136.09765625 C-110.32755846 129.0237711 -110.69352731 119.75553695 -110.31640625 110.80078125 C-109.70934824 103.5085906 -108.0289182 98.38833136 -103.8125 92.4375 C-100.33801711 87.04694199 -100.6805581 82.42580518 -100.88793945 76.25537109 C-101.19734572 66.41778254 -98.7889692 59.75756044 -92.30859375 52.20703125 C-87.72959124 47.82947386 -82.36914931 44.805445 -75.9375 44.5625 C-74.638125 44.706875 -73.33875 44.85125 -72 45 C-71.23429687 45.08378906 -70.46859375 45.16757812 -69.6796875 45.25390625 C-65.38240371 45.92757285 -62.77493783 46.72648689 -59.9375 50.125 C-59.298125 51.07375 -58.65875 52.0225 -58 53 C-56.02 52.505 -56.02 52.505 -54 52 C-56.27415287 48.62911733 -56.27415287 48.62911733 -60 47 C-60.86625 46.0409375 -60.86625 46.0409375 -61.75 45.0625 C-66.41008864 40.79075208 -72.94873485 40.63697528 -79 40 C-76.42677681 29.1879482 -72.16672941 21.6114047 -62.734375 15.4375 C-58.34130666 13.12800122 -53.82200559 12.04302949 -49 11 C-48.01 10.67 -47.02 10.34 -46 10 C-45.236875 10.12375 -44.47375 10.2475 -43.6875 10.375 C-40.42409704 9.91964145 -40.24360178 9.33820656 -38.3125 6.8125 C-32.31320246 -0.65262087 -24.05262112 -2.72132793 -14.84350586 -3.81005859 C-9.21781097 -4.2677377 -4.40528726 -3.71664466 0 0 Z M-34 29 C-36.7182537 31.22109091 -37.49987828 32.84150033 -37.9375 36.3125 C-38.22337465 39.89468443 -37.98065321 41.0409259 -36.375 44.4375 C-33.91426937 47.09249884 -32.33172406 47.81009855 -29 49 C-29.08378906 50.22074219 -29.16757813 51.44148438 -29.25390625 52.69921875 C-31.23847579 70.58039749 -31.23847579 70.58039749 -26 87 C-22.72900357 90.71302298 -19.21255041 93.41502588 -15 96 C-14.67 96 -14.34 96 -14 96 C-13.49734308 93.21160696 -13.49734308 93.21160696 -14 90 C-15.4600476 88.73462541 -16.92833773 87.47480209 -18.46875 86.30859375 C-22.20036907 83.11958255 -22.84265282 79.31431177 -23.3984375 74.671875 C-23.69467876 70.78070598 -23.85686093 66.89957252 -24 63 C-24.09925781 61.783125 -24.19851562 60.56625 -24.30078125 59.3125 C-24.78721657 50.91910626 -24.78721657 50.91910626 -22.5078125 48.2578125 C-20.625 47 -20.625 47 -18.6953125 45.9609375 C-16.76614098 45.04374113 -16.76614098 45.04374113 -15.5 42.625 C-14.59993697 37.89966911 -15.2232302 34.34440928 -17.625 30.1875 C-23.12336074 25.12322037 -27.7151682 25.49499765 -34 29 Z M3 58 C2.97531916 63.09032841 2.95714918 68.18062215 2.94506836 73.27099609 C2.94003318 75.00342414 2.93320468 76.73584792 2.92456055 78.46826172 C2.91245935 80.95541433 2.90676362 83.44251087 2.90234375 85.9296875 C2.89718246 86.70682098 2.89202118 87.48395447 2.88670349 88.28463745 C2.79671948 92.27170906 2.79671948 92.27170906 4 96 C23.36164695 97.36152784 23.36164695 97.36152784 40.62890625 90.39453125 C44.55839036 86.39787648 45.23352683 82.55695301 45.5 77.125 C45.33314321 71.2777578 44.1044441 67.23717488 40 63 C37.71606596 61.31890692 35.59085117 60.22209961 33 59 C32.34 58.67 31.68 58.34 31 58 C28.49460287 57.76292387 26.01103538 57.57665202 23.5 57.4375 C22.42274658 57.3748999 22.42274658 57.3748999 21.32373047 57.31103516 C11.91288948 56.205682 11.91288948 56.205682 3 58 Z M-75 81 C-76.58493084 84.16986168 -76.2940042 87.54032261 -76 91 C-75.13734032 93.40557853 -75.13734032 93.40557853 -74 95 C-73.01 95 -72.02 95 -71 95 C-71 95.66 -71 96.32 -71 97 C-70.01 97.66 -69.02 98.32 -68 99 C-67.74461133 101.73503446 -67.63837201 104.32618022 -67.625 107.0625 C-67.35387568 115.21754438 -66.05580652 120.74047717 -60.2890625 126.796875 C-55.24633477 131.42121047 -50.89379357 133.29463716 -43.96484375 133.0546875 C-42.82595703 133.03019531 -41.68707031 133.00570312 -40.51367188 132.98046875 C-38.12541185 132.91003399 -35.73736721 132.83188146 -33.34960938 132.74609375 C-32.21201172 132.72417969 -31.07441406 132.70226562 -29.90234375 132.6796875 C-28.34761353 132.62917236 -28.34761353 132.62917236 -26.76147461 132.57763672 C-24 133 -24 133 -21.66259766 134.44604492 C-19.17441735 138.26819679 -19.45359125 141.71392645 -19.49609375 146.18359375 C-19.48667252 147.07611343 -19.47725128 147.96863312 -19.46754456 148.88819885 C-19.43888436 151.7381996 -19.43581652 154.58736676 -19.4375 157.4375 C-19.43389051 160.28394106 -19.42433082 163.12977496 -19.39674377 165.97608948 C-19.37997948 167.74565475 -19.37706091 169.51541977 -19.38975525 171.28501892 C-19.34983188 175.96884463 -19.13933067 179.2415116 -16 183 C-15.34 183 -14.68 183 -14 183 C-13.0749044 173.91423969 -12.89047893 164.87612176 -12.875 155.75 C-12.87048828 154.64994629 -12.86597656 153.54989258 -12.86132812 152.41650391 C-12.13271799 140.61717392 -12.13271799 140.61717392 -16.375 130.4375 C-20.04727752 128.42649088 -22.73033 127.87718124 -26.8515625 127.90234375 C-27.78484375 127.90556641 -28.718125 127.90878906 -29.6796875 127.91210938 C-30.65164062 127.92048828 -31.62359375 127.92886719 -32.625 127.9375 C-33.6046875 127.94201172 -34.584375 127.94652344 -35.59375 127.95117188 C-38.06255527 127.96313977 -40.53124677 127.98034914 -43 128 C-47.15942884 128 -51.75581737 126.05860077 -54.859375 123.41796875 C-60.22885108 117.31749964 -61.73871628 111.19394809 -62.30859375 103.15234375 C-61.95218138 99.51152373 -61.31421863 98.56875085 -58.625 96.1875 C-57.98046875 95.66671875 -57.3359375 95.1459375 -56.671875 94.609375 C-54.70863572 92.71952784 -54.29605304 91.60416928 -53.875 88.9375 C-54.01226477 84.61365989 -54.47620685 82.50074534 -57 79 C-64.37182597 74.08544935 -69.03815698 75.1768045 -75 81 Z M-55 148 C-56.24139195 151.72417586 -56.6639871 155.13680236 -56 159 C-52.96148386 163.1109336 -49.9852226 164.93931434 -45 166 C-41.69956645 165.89998686 -40.82375852 164.84015308 -38.3125 162.5625 C-35.11364608 159.01782404 -34.61043879 156.85705446 -34.63671875 152.0390625 C-35.24034603 148.650961 -37.4155948 147.08013101 -40 145 C-40.33 144.67 -40.66 144.34 -41 144 C-46.82268222 143.26614956 -50.8464613 143.45706705 -55 148 Z " fill="#0884F4" transform="translate(225,377)"/>
<path d="M0 0 C16.84030522 14.46683938 30.31653315 35.5957105 32.21191406 58.07958984 C32.3477398 61.93351925 32.37807412 65.7688219 32.34765625 69.625 C32.3439502 70.30597748 32.34024414 70.98695496 32.33642578 71.68856812 C32.11845878 99.87442586 21.99769554 120.19556651 5.19921875 142.44921875 C-8.2118288 160.3229869 -17.43499617 176.74073811 -17.53686523 199.64038086 C-17.65856169 204.71712123 -18.65018787 207.74154675 -22.08984375 211.5 C-28.33679841 214.12399798 -34.71994558 213.73401698 -41.4056015 213.65032959 C-43.48213287 213.62459205 -45.55840615 213.6117202 -47.6350708 213.60205078 C-52.03677874 213.57931398 -56.4382709 213.54078085 -60.83984375 213.5 C-65.95665189 213.45275724 -71.07334042 213.41203426 -76.19031525 213.38812256 C-78.23509471 213.37516867 -80.27950127 213.35016555 -82.32415771 213.32470703 C-83.56264465 213.31810059 -84.80113159 213.31149414 -86.07714844 213.3046875 C-87.1685614 213.29421387 -88.25997437 213.28374023 -89.38446045 213.27294922 C-92.31217567 213.29926424 -92.31217567 213.29926424 -95.08984375 215.5 C-98.8708445 215.99317401 -100.6060036 215.79030409 -103.90234375 213.8125 C-106.38839379 211.18438995 -107.08984375 210.10241706 -107.08984375 206.5 C-104.81273532 200.86144578 -104.81273532 200.86144578 -102.08984375 199.5 C-100.63947268 199.41050583 -99.18505746 199.3824156 -97.73193359 199.38647461 C-96.38075943 199.38658791 -96.38075943 199.38658791 -95.00228882 199.38670349 C-94.02829132 199.39186478 -93.05429382 199.39702606 -92.05078125 199.40234375 C-91.05478912 199.4037587 -90.058797 199.40517365 -89.03262329 199.40663147 C-85.84333322 199.41224064 -82.65411269 199.4247947 -79.46484375 199.4375 C-77.3059906 199.44251382 -75.14713634 199.44707693 -72.98828125 199.45117188 C-67.68877825 199.46221305 -62.38931597 199.47896012 -57.08984375 199.5 C-57.1821629 192.87946382 -57.28947527 186.25929253 -57.40722656 179.63916016 C-57.44551532 177.38693764 -57.48036836 175.134654 -57.51171875 172.88232422 C-57.55737112 169.64528553 -57.6153659 166.40866764 -57.67578125 163.171875 C-57.68733246 162.16445251 -57.69888367 161.15703003 -57.71078491 160.11907959 C-57.7306546 159.17840637 -57.75052429 158.23773315 -57.77099609 157.26855469 C-57.78431976 156.44248718 -57.79764343 155.61641968 -57.81137085 154.76531982 C-58.11570682 152.28960922 -58.91277493 150.67791383 -60.08984375 148.5 C-60.32000257 144.57195622 -59.64920888 141.3726096 -57.52734375 138.0625 C-54.13600262 135.88856338 -51.10375812 135.29252132 -47.08984375 135.5 C-44.12765447 136.72351296 -42.6464561 137.73134485 -40.77734375 140.3125 C-39.59818601 144.06436554 -39.55882895 147.23883985 -41.08984375 150.875 C-41.58484375 151.679375 -41.58484375 151.679375 -42.08984375 152.5 C-42.74984375 152.5 -43.40984375 152.5 -44.08984375 152.5 C-43.75984375 168.01 -43.42984375 183.52 -43.08984375 199.5 C-40.11984375 199.5 -37.14984375 199.5 -34.08984375 199.5 C-34.13109375 198.13875 -34.17234375 196.7775 -34.21484375 195.375 C-34.10216677 168.67055606 -21.51293203 148.03549743 -5.8203125 127.53515625 C8.96641078 108.1403417 16.22693334 84.59470634 13.28515625 60.25 C10.80310009 45.77423193 4.71250366 31.64765969 -6.08984375 21.5 C-6.08984375 20.84 -6.08984375 20.18 -6.08984375 19.5 C-6.68152344 19.23574219 -7.27320313 18.97148437 -7.8828125 18.69921875 C-10.16540651 17.458942 -11.57736134 16.14587313 -13.40234375 14.3125 C-17.16909324 10.92808974 -21.09660277 8.79536343 -25.65234375 6.6875 C-26.27729736 6.39786377 -26.90225098 6.10822754 -27.54614258 5.80981445 C-37.43662644 1.40005285 -46.58562116 0.31047763 -57.2578125 0.66015625 C-60.35684331 0.48490071 -62.37177627 -0.00248095 -65.08984375 -1.5 C-67.85144953 -5.45830162 -67.74356198 -9.85777305 -67.08984375 -14.5 C-65.52734375 -17.5 -65.52734375 -17.5 -63.08984375 -19.5 C-41.34479279 -24.06941738 -16.6617394 -12.99571769 0 0 Z " fill="#01B7E4" transform="translate(304.08984375,393.5)"/>
<path d="M0 0 C51.35135135 0 51.35135135 0 61 7 C69.82343856 16.74124305 71.7721408 26.30450056 71.17919922 39.05126953 C70.49088115 46.53649408 66.54270209 53.06005038 61 58 C55.31454006 62 55.31454006 62 52 62 C56.20128079 70.50559026 60.46280798 78.9765521 64.875 87.375 C65.2558374 88.10581787 65.6366748 88.83663574 66.02905273 89.58959961 C67.4973387 92.36771393 68.76447589 94.76447589 71 97 C71.71927295 99.31765729 72.3909893 101.65095874 73 104 C66.23661754 105.80356866 58.36212315 106.09163414 52 103 C50.44762306 100.65921116 49.35938964 98.66275942 48.25 96.125 C47.57932839 94.68693816 46.90738893 93.24946712 46.234375 91.8125 C45.88052734 91.04164063 45.52667969 90.27078125 45.16210938 89.4765625 C42.6284311 84.0770599 39.85916726 78.78977369 37.14941406 73.47705078 C36.73916992 72.66220215 36.32892578 71.84735352 35.90625 71.0078125 C35.53822266 70.28223145 35.17019531 69.55665039 34.79101562 68.80908203 C34 67 34 67 34 65 C32.02 65.495 32.02 65.495 30 66 C26.04 65.67 22.08 65.34 18 65 C18.33 77.87 18.66 90.74 19 104 C15.17100229 104.76579954 12.20290283 105.13554519 8.375 105.125 C7.43398438 105.12757813 6.49296875 105.13015625 5.5234375 105.1328125 C3 105 3 105 0 104 C0 69.68 0 35.36 0 0 Z M18 17 C18 27.89 18 38.78 18 50 C22.6715625 50.0928125 22.6715625 50.0928125 27.4375 50.1875 C28.39970459 50.21481201 29.36190918 50.24212402 30.35327148 50.27026367 C36.67540345 50.33025329 43.64519149 49.92280706 48.62670898 45.58276367 C52.58842161 41.01675781 53.30543015 37.15895453 53.2109375 31.34765625 C52.88387748 27.70759938 51.84642283 25.1389188 50 22 C45.24844846 18.23835503 41.66277531 16.86926643 35.67578125 16.90234375 C34.28613159 16.90609009 34.28613159 16.90609009 32.8684082 16.90991211 C31.10823364 16.92356812 31.10823364 16.92356812 29.3125 16.9375 C23.7128125 16.9684375 23.7128125 16.9684375 18 17 Z " fill="#0F6DF2" transform="translate(376,446)"/>
<path d="M0 0 C6.63303695 4.42202463 11.26980767 10.36606122 13.625 18.03515625 C14.19506127 21.02203979 14.0582734 23.96978319 14 27 C12.35 27 10.7 27 9 27 C8.67 27.99 8.34 28.98 8 30 C4.13911744 29.79364248 0.62630263 29.38344494 -3 28 C-4.66036841 25.77476398 -5.41632957 23.83852148 -6.21875 21.19140625 C-7.44394123 17.75474486 -9.09319323 16.45569716 -12.31640625 14.8359375 C-18.40612016 12.93899605 -24.8197378 13.02264108 -30.625 15.625 C-33.40894947 18.40894947 -34.30404889 20.13360494 -35 24 C-34.86493034 27.37674146 -34.45678625 29.32475076 -32.5625 32.125 C-25.10189189 37.58398154 -15.21672825 39.4606543 -6.41601562 41.79882812 C1.65404061 44.01149082 7.69254776 46.86230032 12.390625 54.16015625 C16.38619526 61.40499773 18.07644344 68.85262243 16.375 77.0625 C13.65275146 85.80235057 9.78932109 92.90646134 2 98 C-9.42049907 103.78968113 -22.37022482 104.78563673 -34.75 101.5625 C-43.36903895 98.56685841 -49.65392375 93.03812939 -54.0625 85.0625 C-56.25490447 80.14502941 -56.87480628 75.34918606 -57 70 C-53.43913342 68.81304447 -50.02668976 68.64904582 -46.3125 68.4375 C-45.61060547 68.39431641 -44.90871094 68.35113281 -44.18554688 68.30664062 C-42.45724794 68.2008264 -40.7286489 68.09993419 -39 68 C-38.80664062 68.60328125 -38.61328125 69.2065625 -38.4140625 69.828125 C-38.15367187 70.62734375 -37.89328125 71.4265625 -37.625 72.25 C-37.36976563 73.03890625 -37.11453125 73.8278125 -36.8515625 74.640625 C-35.37126727 79.01876142 -35.37126727 79.01876142 -32.2578125 82.265625 C-24.81196467 85.70217015 -17.36794324 86.40398176 -9.5 83.875 C-6.28252058 81.46189044 -4.73103086 79.66179604 -3 76 C-2.5294656 72.60580806 -2.35531578 69.37442822 -3 66 C-4.23898529 64.31280731 -4.23898529 64.31280731 -6 63 C-6.58644287 62.51039795 -7.17288574 62.0207959 -7.77709961 61.51635742 C-10.2700305 59.81579798 -12.3786218 59.12818928 -15.2890625 58.3515625 C-16.82626953 57.92617188 -16.82626953 57.92617188 -18.39453125 57.4921875 C-20.52435922 56.92045617 -22.65455993 56.35011132 -24.78515625 55.78125 C-37.13976409 52.35712648 -46.14245045 48.26597426 -53 37 C-55.30593302 30.08220094 -55.29864826 19.55527828 -52.1640625 12.83203125 C-47.33300927 5.22879647 -40.95535562 -0.99212805 -32.13012695 -3.53979492 C-21.96555783 -5.73580785 -9.05984098 -5.21673978 0 0 Z " fill="#0F68EB" transform="translate(699,449)"/>
<path d="M0 0 C4.95 0 9.9 0 15 0 C17.78406507 6.10371815 20.26395668 12.22431229 22.51171875 18.54296875 C22.83768036 19.44966812 23.16364197 20.35636749 23.4994812 21.2905426 C24.56499149 24.25518491 25.62620891 27.221345 26.6875 30.1875 C28.19793281 34.39546456 29.71145151 38.60231148 31.2265625 42.80859375 C31.61455521 43.88601837 32.00254791 44.96344299 32.40229797 46.07351685 C35.19280761 53.8055189 38.03173092 61.51860496 40.8984375 69.22265625 C41.29225113 70.28191818 41.68606476 71.34118011 42.09181213 72.43254089 C43.9937393 77.54497505 45.90184221 82.65501145 47.81713867 87.76245117 C48.50455786 89.60719826 49.19182226 91.45200304 49.87890625 93.296875 C50.19681122 94.13843643 50.51471619 94.97999786 50.84225464 95.84706116 C51.12835602 96.61779465 51.4144574 97.38852814 51.70922852 98.18261719 C51.95995621 98.85137878 52.2106839 99.52014038 52.4690094 100.20916748 C53 102 53 102 53 105 C50.22858283 105.08089542 47.45952181 105.14044062 44.6875 105.1875 C43.90181641 105.21263672 43.11613281 105.23777344 42.30664062 105.26367188 C41.54931641 105.27333984 40.79199219 105.28300781 40.01171875 105.29296875 C39.31522217 105.3086792 38.61872559 105.32438965 37.90112305 105.34057617 C35.3309209 104.88013801 34.57405756 104.06916007 33 102 C31.92504883 99.57983398 31.92504883 99.57983398 30.95703125 96.74609375 C30.60576172 95.72708984 30.25449219 94.70808594 29.89257812 93.65820312 C29.53615234 92.59537109 29.17972656 91.53253906 28.8125 90.4375 C28.44447266 89.37080078 28.07644531 88.30410156 27.69726562 87.20507812 C25 79.30344098 25 79.30344098 25 77 C13.78 77 2.56 77 -9 77 C-9.33 78.98 -9.66 80.96 -10 83 C-11.00948299 86.46361202 -12.23448807 89.84922494 -13.4375 93.25 C-13.75009766 94.16007813 -14.06269531 95.07015625 -14.38476562 96.0078125 C-14.68962891 96.87664062 -14.99449219 97.74546875 -15.30859375 98.640625 C-15.58501709 99.42985352 -15.86144043 100.21908203 -16.14624023 101.03222656 C-17 103 -17 103 -19 105 C-20.84765625 105.23046875 -20.84765625 105.23046875 -23.0625 105.1875 C-23.77535156 105.18105469 -24.48820313 105.17460938 -25.22265625 105.16796875 C-29.16566217 104.92950285 -33.07789247 104.46352665 -37 104 C-36.57255493 102.79283325 -36.57255493 102.79283325 -36.13647461 101.5612793 C-34.73582059 97.60370435 -33.33628484 93.64573594 -31.9375 89.6875 C-31.67456146 88.94347931 -31.41162292 88.19945862 -31.14071655 87.43289185 C-26.82061442 75.20353759 -22.54126257 62.96030457 -18.27792358 50.71105957 C-13.77332552 37.76982705 -9.26433565 24.83117552 -4.625 11.9375 C-4.26188721 10.92743896 -3.89877441 9.91737793 -3.5246582 8.87670898 C-1.13335064 2.26670128 -1.13335064 2.26670128 0 0 Z M7 30 C4.41247487 35.78998678 2.2837646 41.68245433 0.25 47.6875 C-0.07871094 48.62400391 -0.40742187 49.56050781 -0.74609375 50.52539062 C-1.20435547 51.87987305 -1.20435547 51.87987305 -1.671875 53.26171875 C-2.09098145 54.48314575 -2.09098145 54.48314575 -2.51855469 55.72924805 C-3.23635878 58.2969204 -3.23635878 58.2969204 -2 62 C4.27 62 10.54 62 17 62 C18.03727681 54.97895938 18.03727681 54.97895938 16.12890625 48.84765625 C15.71962891 47.74228516 15.31035156 46.63691406 14.88867188 45.49804688 C14.2322168 43.79745117 14.2322168 43.79745117 13.5625 42.0625 C13.12873047 40.90169922 12.69496094 39.74089844 12.24804688 38.54492188 C11.17930038 35.6910164 10.09635022 32.84339016 9 30 C8.34 30 7.68 30 7 30 Z M18 59 C19 61 19 61 19 61 Z " fill="#0F6AEF" transform="translate(553,446)"/>
<path d="M0 0 C9.40057695 8.89395903 11.38008538 20.63032105 11.8125 33 C11.53515625 35.4375 11.53515625 35.4375 10.8125 37 C5.74736556 38.68837815 -1.12236556 38.68837815 -6.1875 37 C-7.74603267 36.78196693 -9.30932651 36.59633644 -10.875 36.4375 C-11.68324219 36.35371094 -12.49148438 36.26992188 -13.32421875 36.18359375 C-14.24654297 36.09271484 -14.24654297 36.09271484 -15.1875 36 C-15.6825 36.99 -15.6825 36.99 -16.1875 38 C-17.21875 37.835 -18.25 37.67 -19.3125 37.5 C-23.93507412 36.90353882 -27.74029467 36.51759822 -32.1875 38 C-32.8475 37.67 -33.5075 37.34 -34.1875 37 C-34.5175 37.66 -34.8475 38.32 -35.1875 39 C-35.1875 38.01 -35.1875 37.02 -35.1875 36 C-35.8475 36 -36.5075 36 -37.1875 36 C-36.02585286 42.87817388 -34.48746141 48.08826934 -29.0625 52.875 C-24.74401358 54.56484251 -20.7607948 54.65960983 -16.1875 54 C-11.21490469 51.55890776 -10.13462954 49.91188257 -7.1875 45 C-2.2375 45.33 2.7125 45.66 7.8125 46 C9.09987621 51.14950484 7.87965434 52.94356769 5.44921875 57.46484375 C0.54097745 65.06734638 -6.44498849 69.06864778 -15.1875 71 C-25.46324775 72.2140652 -33.41729226 69.93953979 -42.5 65.3125 C-49.60962697 59.194914 -54.5095535 49.9991429 -55.41503906 40.65087891 C-56.21381501 27.27514953 -55.73816205 14.50139335 -46.81640625 3.74609375 C-33.94395967 -10.05242812 -15.13690814 -11.75403852 0 0 Z M-29.1875 10 C-33.07367891 13.10894313 -35.40649482 16.34959759 -37.1875 21 C-36.80765815 23.14105068 -36.80765815 23.14105068 -36.1875 25 C-34.37507948 25.02687279 -32.56254767 25.04633715 -30.75 25.0625 C-29.74066406 25.07410156 -28.73132813 25.08570313 -27.69140625 25.09765625 C-25.24728933 25.28612676 -25.24728933 25.28612676 -24.1875 24 C-20.82120749 23.85363946 -18.40330438 23.92806521 -15.1875 25 C-13.79310336 25.06665376 -12.39580125 25.08538199 -11 25.0625 C-9.741875 25.041875 -8.48375 25.02125 -7.1875 25 C-7.39430444 19.10607341 -8.32187657 15.71643438 -12.453125 11.41796875 C-17.63239545 7.18356521 -23.36674295 7.41435845 -29.1875 10 Z " fill="#1068EB" transform="translate(507.1875,481)"/>
<path d="M0 0 C8.62793033 6.35003191 13.47557726 15.80910048 15.125 26.3125 C16.0746532 39.51423632 14.32067768 51.38396288 6.1015625 62.15625 C-0.46530406 69.32010443 -8.63080007 72.6450677 -18.1640625 73.6640625 C-28.63194635 74.10505982 -38.38783799 71.95287117 -46.3125 64.75 C-56.28225307 53.63963959 -57.48536432 41.59207205 -57.00683594 27.42822266 C-56.39579972 17.62222288 -51.18419677 7.8095638 -43.875 1.3125 C-30.08629892 -7.04848792 -14.1752407 -8.74338376 0 0 Z M-34.5625 17.125 C-40.22402813 24.92872796 -39.93594867 34.56864803 -38.48046875 43.8203125 C-36.7749952 49.43187064 -32.82492434 53.32012414 -27.875 56.3125 C-22.59991586 58.1045582 -17.71569718 57.62637409 -12.66015625 55.375 C-6.96329969 51.98431075 -4.99041892 47.04199908 -3.37890625 40.890625 C-1.64479142 32.01840958 -3.45330408 24.82186482 -7.6875 16.9375 C-10.88022184 13.1062338 -13.52628004 11.561188 -18.53125 11.03125 C-25.88730454 10.79395792 -29.41061136 11.73348863 -34.5625 17.125 Z " fill="#0F6AED" transform="translate(779.875,478.6875)"/>
<path d="M0 0 C6.02692324 4.43374066 9.00873315 9.8775062 11 17 C11.5569303 21.48707209 11.6047307 25.92743397 11.609375 30.4453125 C11.62591125 31.69633759 11.64244751 32.94736267 11.65948486 34.23629761 C11.69956486 37.52751339 11.72307001 40.81827373 11.73822021 44.10968018 C11.75793259 47.4821309 11.79988543 50.85430165 11.83984375 54.2265625 C11.91349861 60.81763928 11.96526959 67.40860927 12 74 C7.25 75.125 7.25 75.125 5 74 C2.6599583 74.28241883 0.32495277 74.61250787 -2 75 C-3.32 73.02 -4.64 71.04 -6 69 C-6.70125 69.61875 -7.4025 70.2375 -8.125 70.875 C-14.27439344 75.42020385 -20.57723765 75.68267741 -28 75 C-34.4288042 73.07135874 -39.96234249 69.57788686 -43.328125 63.66796875 C-46.78565454 55.74243449 -46.95316028 49.20692477 -43.98828125 41.04296875 C-42.53936897 38.04778644 -40.51375653 36.13669305 -38 34 C-37.505 33.443125 -37.01 32.88625 -36.5 32.3125 C-31.93432476 28.31753417 -25.69494388 28.34797964 -19.9375 27.8125 C-19.03966797 27.71775391 -18.14183594 27.62300781 -17.21679688 27.52539062 C-13.1864467 27.13284351 -9.92057195 26.81717959 -6 28 C-6.41153737 23.02906176 -6.79600832 18.55491614 -9 14 C-14.54212603 13.02769719 -18.77715368 12.43784898 -24 15 C-26.05043792 17.8374747 -27.57498985 20.80850262 -29 24 C-31.64 23.67 -34.28 23.34 -37 23 C-37.33 23.66 -37.66 24.32 -38 25 C-38 24.34 -38 23.68 -38 23 C-39.98 23 -41.96 23 -44 23 C-43.3159559 15.20189727 -41.53045033 8.84647606 -36 3 C-26.18191788 -5.1418242 -11.11419471 -6.38124315 0 0 Z M-28 45 C-29.06377081 48.3187433 -29.21615093 51.53020881 -29 55 C-27.81426975 57.76922685 -27.81426975 57.76922685 -25 59 C-20.24178187 60.40880576 -16.21781989 60.46593028 -11.625 58.5 C-7.57271838 56.1590405 -6.24987082 53.53078174 -5 49 C-4.5974896 44.81389189 -4.63327789 43.55008317 -7 40 C-13.55783401 39.15925205 -23.16592586 40.14405222 -28 45 Z " fill="#01B4E5" transform="translate(901,477)"/>
<path d="M0 0 C2.75589777 0.01747927 5.38786676 0.13863271 8.125 0.375 C8.87910156 0.43171875 9.63320313 0.4884375 10.41015625 0.546875 C12.27418096 0.6884465 14.13721137 0.84299959 16 1 C15.99666908 2.84709564 15.99666908 2.84709564 15.99327087 4.73150635 C15.9730142 16.32658177 15.95801564 27.92165361 15.94818783 39.51674271 C15.94296544 45.47812893 15.93587943 51.43950089 15.92456055 57.40087891 C15.91370886 63.15207815 15.9077183 68.90326366 15.90512276 74.65447235 C15.90327264 76.8505449 15.89965991 79.04661669 15.89426994 81.24268341 C15.8870293 84.31447484 15.88601035 87.38620924 15.88647461 90.45800781 C15.88287933 91.36934982 15.87928406 92.28069183 15.87557983 93.21965027 C15.8769545 94.05815018 15.87832916 94.89665009 15.87974548 95.76055908 C15.87836279 96.85011839 15.87836279 96.85011839 15.87695217 97.961689 C15.93158154 100.03018205 15.93158154 100.03018205 16.57001591 102.07746506 C17 104 17 104 16 107 C14.576875 106.7215625 14.576875 106.7215625 13.125 106.4375 C8.35520074 105.73231407 3.75075712 106.37867362 -1 107 C-1.91824469 104.24526594 -2.12734429 102.61841647 -2.13371277 99.78038025 C-2.13797775 98.92090286 -2.14224274 98.06142548 -2.14663696 97.17590332 C-2.14618378 96.23605591 -2.14573059 95.2962085 -2.14526367 94.32788086 C-2.14862228 93.33579117 -2.1519809 92.34370148 -2.15544128 91.32154846 C-2.16495542 88.03596756 -2.16689443 84.75043757 -2.16796875 81.46484375 C-2.17118027 79.18705728 -2.17454426 76.90927102 -2.17805481 74.63148499 C-2.18404672 69.85579957 -2.18589457 65.08013227 -2.18530273 60.30444336 C-2.18520094 54.17167198 -2.19887068 48.03901593 -2.21607494 41.90627193 C-2.2271666 37.20267702 -2.22922284 32.49911027 -2.22869301 27.79550362 C-2.22987674 25.53358117 -2.23432035 23.27165809 -2.24202538 21.00974846 C-2.25177106 17.85399032 -2.2489691 14.69848642 -2.24291992 11.54272461 C-2.24853943 10.60085297 -2.25415894 9.65898132 -2.25994873 8.68856812 C-2.253657 7.40358177 -2.253657 7.40358177 -2.24723816 6.09263611 C-2.24778293 5.34619308 -2.24832769 4.59975004 -2.24888897 3.83068752 C-2 2 -2 2 0 0 Z " fill="#106FF4" transform="translate(807,445)"/>
<path d="M0 0 C5.61 0 11.22 0 17 0 C17 24.42 17 48.84 17 74 C15.68 74 14.36 74 13 74 C12.505 74.99 12.505 74.99 12 76 C11.30132813 75.9278125 10.60265625 75.855625 9.8828125 75.78125 C8.97273437 75.6884375 8.06265625 75.595625 7.125 75.5 C6.22007812 75.4071875 5.31515625 75.314375 4.3828125 75.21875 C2.06686789 74.96952705 2.06686789 74.96952705 0 75 C-0.17060063 67.37282967 -0.32999864 59.74547981 -0.48217773 52.11791992 C-0.5350318 49.53160493 -0.59030428 46.94533805 -0.64819336 44.35913086 C-0.97901089 29.50110885 -1.01891797 14.8309171 0 0 Z " fill="#0F6CF5" transform="translate(615,476)"/>
<path d="M0 0 C0.01030746 0.8533342 0.02061493 1.7066684 0.03123474 2.58586121 C0.12927828 10.6341011 0.23180243 18.68226882 0.33933926 26.73038769 C0.39446527 30.86783945 0.44786849 35.00529841 0.49731445 39.14282227 C0.5451106 43.13696084 0.59745839 47.13101637 0.65294075 51.12505531 C0.67329536 52.64762614 0.69201956 54.17021967 0.70907402 55.69283104 C0.73327131 57.82810021 0.76330393 59.96321453 0.79467773 62.09838867 C0.81799416 63.92040047 0.81799416 63.92040047 0.84178162 65.77922058 C0.98211508 68.63592486 1.34576871 71.22195039 2 74 C-3.12933313 75.82376289 -6.41199976 76.2233044 -11.6875 75 C-12.89986328 74.7215625 -12.89986328 74.7215625 -14.13671875 74.4375 C-14.75160156 74.293125 -15.36648438 74.14875 -16 74 C-16.02312484 64.49925675 -16.0409158 54.99852312 -16.05181217 45.49775791 C-16.05704069 41.08662996 -16.06413777 36.6755212 -16.07543945 32.2644043 C-16.08626944 28.01098885 -16.09227707 23.75759191 -16.09487724 19.50416374 C-16.09673129 17.87778367 -16.10035152 16.25140466 -16.10573006 14.62503242 C-16.11294198 12.35489807 -16.11399088 10.08484115 -16.11352539 7.81469727 C-16.115746 6.52008072 -16.11796661 5.22546417 -16.12025452 3.89161682 C-16 1 -16 1 -15 0 C-13.23636143 -0.26235946 -11.46293154 -0.46039045 -9.6875 -0.625 C-8.72199219 -0.72039062 -7.75648438 -0.81578125 -6.76171875 -0.9140625 C-4.2070727 -0.99355644 -2.43138686 -0.67240759 0 0 Z " fill="#01BBED" transform="translate(940,476)"/>
<path d="M0 0 C0.85839981 -0.00095673 1.71679962 -0.00191345 2.60121155 -0.00289917 C4.41228306 -0.00357626 6.22335705 -0.00175499 8.03442383 0.00244141 C10.74631506 0.00773666 13.45803613 0.00251125 16.16992188 -0.00390625 C27.09822974 -0.0076469 37.94753833 0.34829709 48.84765625 1.1328125 C50.95364427 4.89757101 51.01431988 6.91487476 49.84765625 11.1328125 C47.93034104 13.66018254 46.93260216 14.1044972 43.84765625 15.1328125 C42.01843205 15.23099994 40.18584787 15.27102911 38.35400391 15.27807617 C36.66677719 15.28764595 36.66677719 15.28764595 34.94546509 15.29740906 C33.12201065 15.29907829 33.12201065 15.29907829 31.26171875 15.30078125 C30.0126474 15.30410965 28.76357605 15.30743805 27.47665405 15.31086731 C24.8320561 15.31593438 22.18756089 15.31870779 19.54296875 15.31811523 C16.16139511 15.31801371 12.78003189 15.33165837 9.39850807 15.34888744 C6.16541956 15.36271024 2.9323328 15.362097 -0.30078125 15.36328125 C-1.51236908 15.37046677 -2.72395691 15.37765228 -3.97225952 15.38505554 C-5.10338165 15.38197891 -6.23450378 15.37890228 -7.39990234 15.37573242 C-8.39234955 15.37715744 -9.38479675 15.37858246 -10.40731812 15.38005066 C-13.35765029 15.11432101 -15.50059884 14.43604035 -18.15234375 13.1328125 C-20.17957483 10.55270022 -20.16642443 9.30882106 -19.90234375 6.0078125 C-19.15234375 3.1328125 -19.15234375 3.1328125 -17.15234375 1.1328125 C-11.42365116 0.13846924 -5.80258021 -0.01464185 0 0 Z " fill="#03C1D8" transform="translate(225.15234375,613.8671875)"/>
<path d="M0 0 C1.28753174 0.00136711 1.28753174 0.00136711 2.60107422 0.00276184 C3.48134277 -0.00152328 4.36161133 -0.00580841 5.26855469 -0.01022339 C7.1313389 -0.01597132 8.99414556 -0.01646355 10.85693359 -0.01213074 C13.71474263 -0.00896944 16.57151819 -0.03242828 19.42919922 -0.05778503 C21.23648957 -0.06005776 23.04378272 -0.06076165 24.85107422 -0.05973816 C25.70942871 -0.06894791 26.5677832 -0.07815765 27.45214844 -0.08764648 C29.85888672 -0.06877136 29.85888672 -0.06877136 33.72607422 0.30354309 C35.72607422 3.30354309 35.72607422 3.30354309 35.66357422 6.24104309 C34.45781878 10.1798442 33.25000253 11.20418155 29.72607422 13.30354309 C23.8341257 15.08393623 18.42927699 15.69086392 12.28857422 15.67854309 C11.45326172 15.67693176 10.61794922 15.67532043 9.75732422 15.67366028 C2.49726685 15.52879998 -2.93529887 14.34758527 -8.39892578 9.36604309 C-9.56952905 6.60676395 -9.23335154 5.10801838 -8.27392578 2.30354309 C-5.61664958 -0.35373311 -3.61590455 0.04339691 0 0 Z " fill="#05C0D7" transform="translate(228.27392578125,635.6964569091797)"/>
<path d="M0 0 C50.71428571 0 50.71428571 0 59 6 C57 7 57 7 54.609375 6.2578125 C53.66578125 5.88398438 52.7221875 5.51015625 51.75 5.125 C35.935201 -1.12228248 19.00702612 1.44755332 2 1 C2 34.66 2 68.32 2 103 C6.62 103 11.24 103 16 103 C16 90.13 16 77.26 16 64 C22.27 64 28.54 64 35 64 C36.12019531 66.27519531 37.24039063 68.55039062 38.39453125 70.89453125 C39.48528189 73.0994382 40.5781093 75.30330398 41.67114258 77.50708008 C42.42885533 79.03757881 43.18440917 80.56914836 43.93774414 82.10180664 C45.02182365 84.30641131 46.11364449 86.50703071 47.20703125 88.70703125 C47.70877617 89.73374687 47.70877617 89.73374687 48.22065735 90.78120422 C50.08505487 94.51792386 50.08505487 94.51792386 52.73706055 97.70581055 C54 99 54 99 54 103 C61.92 102.505 61.92 102.505 70 102 C68.989375 100.06125 67.97875 98.1225 66.9375 96.125 C65.21484375 92.8203125 65.21484375 92.8203125 64 90 C64.33 89.34 64.66 88.68 65 88 C65.9765625 89.7578125 66.953125 91.515625 67.9296875 93.2734375 C69.00897274 95.1612614 69.00897274 95.1612614 71 97 C71.71927295 99.31765729 72.3909893 101.65095874 73 104 C66.23661754 105.80356866 58.36212315 106.09163414 52 103 C50.44762306 100.65921116 49.35938964 98.66275942 48.25 96.125 C47.57932839 94.68693816 46.90738893 93.24946712 46.234375 91.8125 C45.88052734 91.04164063 45.52667969 90.27078125 45.16210938 89.4765625 C42.6284311 84.0770599 39.85916726 78.78977369 37.14941406 73.47705078 C36.73916992 72.66220215 36.32892578 71.84735352 35.90625 71.0078125 C35.53822266 70.28223145 35.17019531 69.55665039 34.79101562 68.80908203 C34 67 34 67 34 65 C32.02 65.495 32.02 65.495 30 66 C26.04 65.67 22.08 65.34 18 65 C18.33 77.87 18.66 90.74 19 104 C15.17100229 104.76579954 12.20290283 105.13554519 8.375 105.125 C7.43398438 105.12757813 6.49296875 105.13015625 5.5234375 105.1328125 C3 105 3 105 0 104 C0 69.68 0 35.36 0 0 Z " fill="#0C55B9" transform="translate(376,446)"/>
<path d="M0 0 C3.95733555 2.35918081 5.51594134 3.99748784 7.125 8.25 C7.31039964 12.23609228 6.27463049 14.52093604 4.25 17.9375 C0.67900496 20.09357248 -1.7069923 20.9375 -5.875 20.9375 C-9.65080881 19.6241752 -11.33103514 18.11671096 -13.75 14.9375 C-15.07084654 10.66417297 -15.13188839 8.76492484 -13.25 4.6875 C-9.18306037 0.21386641 -5.97913739 -1.69408893 0 0 Z " fill="#1165E0" transform="translate(627.75,446.0625)"/>
<path d="M0 0 C0.76570313 0.08378906 1.53140625 0.16757812 2.3203125 0.25390625 C6.61759629 0.92757285 9.22506217 1.72648689 12.0625 5.125 C12.701875 6.07375 13.34125 7.0225 14 8 C15.32 7.67 16.64 7.34 18 7 C17.01 5.35 16.02 3.7 15 2 C17.46800047 3.15173355 19.04783565 4.04783565 21 6 C20.625 8.125 20.625 8.125 20 10 C17.4375 10.875 17.4375 10.875 14 11 C12.04297699 9.68244284 10.46732919 8.21761532 8.80859375 6.54296875 C4.40310507 2.78450649 -0.50443799 2.43491224 -6.0859375 2.5703125 C-12.34485651 3.49320941 -17.10202355 6.51179917 -20.921875 11.51953125 C-23.9131707 16.38394782 -26.236009 20.47349506 -25.8515625 26.28125 C-25.3948682 35.94065993 -25.1132735 42.60520564 -31.2421875 50.5703125 C-36.4244461 57.7333455 -36.961951 67.46268489 -36 76 C-34.67635472 82.34246698 -33.01989263 87.32258326 -28.3125 91.875 C-24.0047712 96.26504209 -24.31266566 100.61662607 -24.1484375 106.53515625 C-23.757467 115.66123076 -20.40700188 122.5289281 -14 129 C-10.20131971 132.04654159 -6.64530734 133.85485767 -1.9375 135 C2.39024441 136.45669675 3.5806057 139.31397933 5.625 143.25 C6.18574219 144.40371094 6.74648437 145.55742188 7.32421875 146.74609375 C9.41238481 150.80073787 11.86782112 153.7150319 15 157 C8.89772346 154.2835027 5.61297097 149.4944628 3 143.5 C0.36898557 138.41853095 -3.78868733 136.82166689 -8.76123047 134.59155273 C-16.99770314 130.80625704 -21.83498048 124.38173512 -25 116 C-26.53609817 111.16348518 -27.05148081 106.99450993 -26.6875 101.9375 C-26.60833992 98.91079095 -26.6639504 97.4821986 -28.41015625 94.9765625 C-29.65894776 93.67739511 -30.91440986 92.38461327 -32.17578125 91.09765625 C-38.32755846 84.0237711 -38.69352731 74.75553695 -38.31640625 65.80078125 C-37.70934824 58.5085906 -36.0289182 53.38833136 -31.8125 47.4375 C-28.33801711 42.04694199 -28.6805581 37.42580518 -28.88793945 31.25537109 C-29.19734572 21.41778254 -26.7889692 14.75756044 -20.30859375 7.20703125 C-14.36735074 1.52716272 -8.11734488 -0.90192721 0 0 Z " fill="#165BBE" transform="translate(153,422)"/>
<path d="M0 0 C3.37021602 2.0970233 5.89129539 4.11953387 7 8 C6.92253683 12.26047438 6.42183291 14.42928489 3.875 17.875 C0.39820214 20.44480711 -1.69030995 21 -6 21 C-9.49573759 19.64937411 -10.76340344 18.34700828 -12.875 15.25 C-14.2741007 11.20815353 -14.26372224 9.08851312 -13 5 C-8.96475515 0.48436886 -6.02902929 -0.98656843 0 0 Z " fill="#04ABDB" transform="translate(936,446)"/>
<path d="M0 0 C2.75589777 0.01747927 5.38786676 0.13863271 8.125 0.375 C8.87910156 0.43171875 9.63320313 0.4884375 10.41015625 0.546875 C12.27418096 0.6884465 14.13721137 0.84299959 16 1 C15.99666908 2.84709564 15.99666908 2.84709564 15.99327087 4.73150635 C15.9730142 16.32658177 15.95801564 27.92165361 15.94818783 39.51674271 C15.94296544 45.47812893 15.93587943 51.43950089 15.92456055 57.40087891 C15.91370886 63.15207815 15.9077183 68.90326366 15.90512276 74.65447235 C15.90327264 76.8505449 15.89965991 79.04661669 15.89426994 81.24268341 C15.8870293 84.31447484 15.88601035 87.38620924 15.88647461 90.45800781 C15.88287933 91.36934982 15.87928406 92.28069183 15.87557983 93.21965027 C15.8769545 94.05815018 15.87832916 94.89665009 15.87974548 95.76055908 C15.87836279 96.85011839 15.87836279 96.85011839 15.87695217 97.961689 C15.93158154 100.03018205 15.93158154 100.03018205 16.57001591 102.07746506 C17 104 17 104 16 107 C14.576875 106.7215625 14.576875 106.7215625 13.125 106.4375 C8.35520074 105.73231407 3.75075712 106.37867362 -1 107 C-1.91824469 104.24526594 -2.12734429 102.61841647 -2.13371277 99.78038025 C-2.13797775 98.92090286 -2.14224274 98.06142548 -2.14663696 97.17590332 C-2.14618378 96.23605591 -2.14573059 95.2962085 -2.14526367 94.32788086 C-2.14862228 93.33579117 -2.1519809 92.34370148 -2.15544128 91.32154846 C-2.16495542 88.03596756 -2.16689443 84.75043757 -2.16796875 81.46484375 C-2.17118027 79.18705728 -2.17454426 76.90927102 -2.17805481 74.63148499 C-2.18404672 69.85579957 -2.18589457 65.08013227 -2.18530273 60.30444336 C-2.18520094 54.17167198 -2.19887068 48.03901593 -2.21607494 41.90627193 C-2.2271666 37.20267702 -2.22922284 32.49911027 -2.22869301 27.79550362 C-2.22987674 25.53358117 -2.23432035 23.27165809 -2.24202538 21.00974846 C-2.25177106 17.85399032 -2.2489691 14.69848642 -2.24291992 11.54272461 C-2.24853943 10.60085297 -2.25415894 9.65898132 -2.25994873 8.68856812 C-2.253657 7.40358177 -2.253657 7.40358177 -2.24723816 6.09263611 C-2.24778293 5.34619308 -2.24832769 4.59975004 -2.24888897 3.83068752 C-2 2 -2 2 0 0 Z M0 3 C0 36.33 0 69.66 0 104 C4.62 104 9.24 104 14 104 C14 70.67 14 37.34 14 3 C9.38 3 4.76 3 0 3 Z " fill="#083D8C" transform="translate(807,445)"/>
<path d="M0 0 C2.8125 1.1875 2.8125 1.1875 5 3 C5.6875 5.625 5.6875 5.625 6 8 C6.66 8.33 7.32 8.66 8 9 C4.92444478 17.35039016 4.92444478 17.35039016 1.6875 19.625 C-1.8922097 20.12449438 -4.50102388 19.95426622 -8 19 C-10.75803634 16.45970338 -11.82230589 14.56862115 -12.9375 11 C-13.0142585 7.31559193 -12.25611886 5.87849647 -10 3 C-6.8142144 -0.1857856 -4.43606442 -0.54319156 0 0 Z " fill="#059FE0" transform="translate(845,532)"/>
<path d="M0 0 C3.21654084 1.60827042 3.66967288 4.98364129 4.8203125 8.2109375 C5.08383514 8.93487701 5.34735779 9.65881653 5.61886597 10.4046936 C6.17532248 11.93846391 6.72821439 13.47353138 7.27783203 15.00976562 C8.12015263 17.36146647 8.97515524 19.70825648 9.83203125 22.0546875 C10.37055502 23.54399503 10.90834005 25.03356994 11.4453125 26.5234375 C11.70152374 27.22665131 11.95773499 27.92986511 12.22171021 28.65438843 C13.26054772 31.57472334 14 33.87497427 14 37 C11.22858283 37.08089542 8.45952181 37.14044062 5.6875 37.1875 C4.50897461 37.22520508 4.50897461 37.22520508 3.30664062 37.26367188 C2.54931641 37.27333984 1.79199219 37.28300781 1.01171875 37.29296875 C0.31522217 37.3086792 -0.38127441 37.32438965 -1.09887695 37.34057617 C-3.6690791 36.88013801 -4.42594244 36.06916007 -6 34 C-7.07495117 31.57983398 -7.07495117 31.57983398 -8.04296875 28.74609375 C-8.56987305 27.21758789 -8.56987305 27.21758789 -9.10742188 25.65820312 C-9.46384766 24.59537109 -9.82027344 23.53253906 -10.1875 22.4375 C-10.55552734 21.37080078 -10.92355469 20.30410156 -11.30273438 19.20507812 C-14 11.30344098 -14 11.30344098 -14 9 C-25.22 9 -36.44 9 -48 9 C-48.33 10.98 -48.66 12.96 -49 15 C-50.00948299 18.46361202 -51.23448807 21.84922494 -52.4375 25.25 C-52.75009766 26.16007813 -53.06269531 27.07015625 -53.38476562 28.0078125 C-53.84206055 29.31105469 -53.84206055 29.31105469 -54.30859375 30.640625 C-54.58501709 31.42985352 -54.86144043 32.21908203 -55.14624023 33.03222656 C-56 35 -56 35 -58 37 C-59.84765625 37.23046875 -59.84765625 37.23046875 -62.0625 37.1875 C-62.77535156 37.18105469 -63.48820313 37.17460938 -64.22265625 37.16796875 C-68.16566217 36.92950285 -72.07789247 36.46352665 -76 36 C-74.61977212 32.04638856 -73.23208002 28.09550303 -71.83740234 24.14697266 C-71.36398459 22.8032969 -70.89261604 21.45889732 -70.42333984 20.11376953 C-69.74854068 18.18067679 -69.06642024 16.25030502 -68.3828125 14.3203125 C-67.97434082 13.15773926 -67.56586914 11.99516602 -67.14501953 10.79736328 C-66 8 -66 8 -64 6 C-65.3606681 12.75523606 -67.28709973 19.08575595 -69.625 25.5625 C-69.94984375 26.47580078 -70.2746875 27.38910156 -70.609375 28.33007812 C-71.40152045 30.5550749 -72.20008768 32.77778368 -73 35 C-68.05 34.67 -63.1 34.34 -58 34 C-57.36191406 32.13472656 -56.72382812 30.26945313 -56.06640625 28.34765625 C-55.23192371 25.9192183 -54.39727999 23.49083572 -53.5625 21.0625 C-52.93118164 19.21495117 -52.93118164 19.21495117 -52.28710938 17.33007812 C-51.88427734 16.16025391 -51.48144531 14.99042969 -51.06640625 13.78515625 C-50.69459229 12.70113525 -50.32277832 11.61711426 -49.93969727 10.50024414 C-49 8 -49 8 -48 7 C-45.47905924 6.91152257 -42.98569107 6.88472699 -40.46484375 6.90234375 C-39.33496788 6.90446617 -39.33496788 6.90446617 -38.18226624 6.90663147 C-35.7673044 6.91224624 -33.35243399 6.92480117 -30.9375 6.9375 C-29.30403779 6.9425131 -27.67057414 6.94707634 -26.03710938 6.95117188 C-22.02470415 6.96222046 -18.01236759 6.97949494 -14 7 C-11.29141527 12.89091101 -8.87978747 18.81436102 -6.75 24.9375 C-6.3478125 26.06768555 -6.3478125 26.06768555 -5.9375 27.22070312 C-4 32.7415896 -4 32.7415896 -4 35 C1.28 35 6.56 35 12 35 C11.13375 32.72480469 10.2675 30.44960938 9.375 28.10546875 C8.53982671 25.90173322 7.70635542 23.69736114 6.87304688 21.49291992 C6.29279412 19.96066972 5.71077301 18.42908796 5.12695312 16.89819336 C4.28831136 14.69818498 3.45604887 12.49585469 2.625 10.29296875 C2.36251465 9.60849167 2.1000293 8.92401459 1.82958984 8.21879578 C0.74480992 5.32707244 0 3.11684291 0 0 Z " fill="#0D4BAB" transform="translate(592,514)"/>
<path d="M0 0 C0.01030746 0.8533342 0.02061493 1.7066684 0.03123474 2.58586121 C0.12927828 10.6341011 0.23180243 18.68226882 0.33933926 26.73038769 C0.39446527 30.86783945 0.44786849 35.00529841 0.49731445 39.14282227 C0.5451106 43.13696084 0.59745839 47.13101637 0.65294075 51.12505531 C0.67329536 52.64762614 0.69201956 54.17021967 0.70907402 55.69283104 C0.73327131 57.82810021 0.76330393 59.96321453 0.79467773 62.09838867 C0.81799416 63.92040047 0.81799416 63.92040047 0.84178162 65.77922058 C0.98211508 68.63592486 1.34576871 71.22195039 2 74 C-3.12933313 75.82376289 -6.41199976 76.2233044 -11.6875 75 C-12.89986328 74.7215625 -12.89986328 74.7215625 -14.13671875 74.4375 C-14.75160156 74.293125 -15.36648438 74.14875 -16 74 C-16.02312484 64.49925675 -16.0409158 54.99852312 -16.05181217 45.49775791 C-16.05704069 41.08662996 -16.06413777 36.6755212 -16.07543945 32.2644043 C-16.08626944 28.01098885 -16.09227707 23.75759191 -16.09487724 19.50416374 C-16.09673129 17.87778367 -16.10035152 16.25140466 -16.10573006 14.62503242 C-16.11294198 12.35489807 -16.11399088 10.08484115 -16.11352539 7.81469727 C-16.115746 6.52008072 -16.11796661 5.22546417 -16.12025452 3.89161682 C-16 1 -16 1 -15 0 C-13.23636143 -0.26235946 -11.46293154 -0.46039045 -9.6875 -0.625 C-8.72199219 -0.72039062 -7.75648438 -0.81578125 -6.76171875 -0.9140625 C-4.2070727 -0.99355644 -2.43138686 -0.67240759 0 0 Z M-14 2 C-14 25.43 -14 48.86 -14 73 C-9.71 73 -5.42 73 -1 73 C-1 49.57 -1 26.14 -1 2 C-5.29 2 -9.58 2 -14 2 Z " fill="#078BB0" transform="translate(940,476)"/>
<path d="M0 0 C3.18009296 4.1941632 3.40269005 7.83860245 3.29296875 12.92578125 C3.28872391 13.67337204 3.28447906 14.42096283 3.28010559 15.19120789 C3.26339056 17.56534732 3.22575347 19.93861967 3.1875 22.3125 C3.17244381 23.92772206 3.15875703 25.54295751 3.14648438 27.15820312 C3.1135108 31.10579988 3.06177969 35.05275322 3 39 C3.87624023 38.97905273 4.75248047 38.95810547 5.65527344 38.93652344 C8.96544302 38.86757975 12.2748293 38.81783436 15.58544922 38.78027344 C17.00712262 38.76038989 18.42871683 38.73327273 19.85009766 38.69824219 C32.65120014 38.391088 44.29625829 39.85652051 54 49 C55.7995739 50.93597193 57.39497532 52.8934051 59 55 C58.505 55.99 58.505 55.99 58 57 C57.63390625 56.49210937 57.2678125 55.98421875 56.890625 55.4609375 C49.42923943 45.9743187 39.66536691 42.48374473 28 41 C23.43936676 40.65867338 18.88368398 40.49819867 14.3125 40.375 C13.12205078 40.33632813 11.93160156 40.29765625 10.70507812 40.2578125 C7.80352947 40.16459005 4.90197034 40.07878652 2 40 C1.970271 38.48647949 1.970271 38.48647949 1.93994141 36.94238281 C1.86376664 33.19245804 1.77506784 29.44291529 1.68261719 25.69335938 C1.64437642 24.07169141 1.60951497 22.44994004 1.578125 20.828125 C1.53236743 18.49448883 1.47439184 16.16142438 1.4140625 13.828125 C1.40251129 13.10506165 1.39096008 12.38199829 1.37905884 11.63702393 C1.2718442 7.96564261 1.08919344 5.087712 -1 2 C-6.38348922 -2.11678587 -16.55898462 -0.81984204 -23 0 C-29.12965898 1.84810534 -34.0925049 4.28926454 -37.6875 9.6875 C-40.27187854 13.23712835 -43.01305744 13.64407323 -47.1340332 14.35668945 C-48.63482175 14.572224 -50.13876137 14.76714121 -51.64526367 14.93823242 C-55.58678969 15.41374211 -58.48186268 16.07584051 -61.91015625 18.14453125 C-62.92980469 18.75683594 -63.94945312 19.36914062 -65 20 C-65.66 19.67 -66.32 19.34 -67 19 C-61.32089608 14.33051455 -56.09508716 12.67209061 -49 11 C-48.01 10.67 -47.02 10.34 -46 10 C-45.236875 10.12375 -44.47375 10.2475 -43.6875 10.375 C-40.42409704 9.91964145 -40.24360178 9.33820656 -38.3125 6.8125 C-32.31320246 -0.65262087 -24.05262112 -2.72132793 -14.84350586 -3.81005859 C-9.21781097 -4.2677377 -4.40528726 -3.71664466 0 0 Z " fill="#086DB5" transform="translate(225,377)"/>
<path d="M0 0 C6.27 0 12.54 0 19 0 C20.12019531 2.27519531 21.24039063 4.55039062 22.39453125 6.89453125 C23.48528189 9.0994382 24.5781093 11.30330398 25.67114258 13.50708008 C26.42885533 15.03757881 27.18440917 16.56914836 27.93774414 18.10180664 C29.02182365 20.30641131 30.11364449 22.50703071 31.20703125 24.70703125 C31.54152786 25.39150833 31.87602448 26.07598541 32.22065735 26.78120422 C34.08505487 30.51792386 34.08505487 30.51792386 36.73706055 33.70581055 C38 35 38 35 38 39 C45.92 38.505 45.92 38.505 54 38 C52.989375 36.06125 51.97875 34.1225 50.9375 32.125 C49.21484375 28.8203125 49.21484375 28.8203125 48 26 C48.33 25.34 48.66 24.68 49 24 C49.9765625 25.7578125 50.953125 27.515625 51.9296875 29.2734375 C53.00897274 31.1612614 53.00897274 31.1612614 55 33 C55.71927295 35.31765729 56.3909893 37.65095874 57 40 C50.23661754 41.80356866 42.36212315 42.09163414 36 39 C34.44762306 36.65921116 33.35938964 34.66275942 32.25 32.125 C31.57932839 30.68693816 30.90738893 29.24946712 30.234375 27.8125 C29.88052734 27.04164063 29.52667969 26.27078125 29.16210938 25.4765625 C26.6284311 20.0770599 23.85916726 14.78977369 21.14941406 9.47705078 C20.73916992 8.66220215 20.32892578 7.84735352 19.90625 7.0078125 C19.53822266 6.28223145 19.17019531 5.55665039 18.79101562 4.80908203 C18 3 18 3 18 1 C16.68 1.33 15.36 1.66 14 2 C10.04 1.67 6.08 1.34 2 1 C2.33 13.87 2.66 26.74 3 40 C-1.11320291 40.82264058 -3.33123788 41.04025145 -7.3125 40.5625 C-8.63701172 40.40974609 -8.63701172 40.40974609 -9.98828125 40.25390625 C-10.65214844 40.17011719 -11.31601562 40.08632813 -12 40 C-12 39.67 -12 39.34 -12 39 C-8.04 39 -4.08 39 0 39 C0 26.13 0 13.26 0 0 Z " fill="#0F54B3" transform="translate(392,510)"/>
<path d="M0 0 C5.61 0 11.22 0 17 0 C17 24.42 17 48.84 17 74 C15.68 74 14.36 74 13 74 C12.505 74.99 12.505 74.99 12 76 C11.30132813 75.9278125 10.60265625 75.855625 9.8828125 75.78125 C8.97273437 75.6884375 8.06265625 75.595625 7.125 75.5 C6.22007812 75.4071875 5.31515625 75.314375 4.3828125 75.21875 C2.06686789 74.96952705 2.06686789 74.96952705 0 75 C-0.17060063 67.37282967 -0.32999864 59.74547981 -0.48217773 52.11791992 C-0.5350318 49.53160493 -0.59030428 46.94533805 -0.64819336 44.35913086 C-0.97901089 29.50110885 -1.01891797 14.8309171 0 0 Z M1 2 C1 25.43 1 48.86 1 73 C5.95 73 10.9 73 16 73 C16 49.57 16 26.14 16 2 C11.05 2 6.1 2 1 2 Z " fill="#084298" transform="translate(615,476)"/>
<path d="M0 0 C25.62965534 -0.62132498 25.62965534 -0.62132498 33 4 C37.47077921 8.47077921 38.18794909 11.53556535 38.3125 17.75 C38.26090437 23.35672507 38.12692818 26.87307182 34 31 C30.9375 33.4375 30.9375 33.4375 28 35 C26.515 34.505 26.515 34.505 25 34 C25.54269531 33.70867187 26.08539063 33.41734375 26.64453125 33.1171875 C31.37779531 30.40515512 34.32721444 28.43655307 36 23 C36.75421892 17.10631786 36.2143997 12.12294952 33 7 C26.98214672 2.41813767 20.27738914 2.35188345 13 2.25 C7.555 2.12625 7.555 2.12625 2 2 C2.33 12.56 2.66 23.12 3 34 C9.93 34.33 16.86 34.66 24 35 C24 35.33 24 35.66 24 36 C16.08 36 8.16 36 0 36 C0 24.12 0 12.24 0 0 Z " fill="#0E55B7" transform="translate(392,461)"/>
<path d="M0 0 C2.3181362 1.89111111 3.66914015 3.33828031 5 6 C5.25797575 9.95562822 5.09440189 12.59659693 3 16 C2.34 16 1.68 16 1 16 C1.33 15.01 1.66 14.02 2 13 C2.37076101 9.46351041 2.63184205 6.18934975 0.9375 3 C-2.17909511 1.39143478 -4.56262469 1.57786619 -8 2 C-10.58333333 3.41666667 -10.58333333 3.41666667 -12 6 C-12.46337203 10.40203429 -12.48038907 12.2794164 -10 16 C-9.75949097 18.10710144 -9.75949097 18.10710144 -9.77294922 20.56323242 C-9.77317581 21.94432442 -9.77317581 21.94432442 -9.77340698 23.35331726 C-9.78372955 24.34402725 -9.79405212 25.33473724 -9.8046875 26.35546875 C-9.8075174 27.37224197 -9.81034729 28.3890152 -9.81326294 29.43659973 C-9.82446617 32.68701908 -9.84957114 35.93716381 -9.875 39.1875 C-9.88502961 41.38996998 -9.89415549 43.59244428 -9.90234375 45.79492188 C-9.92440595 51.19670843 -9.95788492 56.59833459 -10 62 C-10.99 62.495 -10.99 62.495 -12 63 C-12.00808685 62.42006287 -12.01617371 61.84012573 -12.02450562 61.24261475 C-12.11054692 55.20790637 -12.21005044 49.17352663 -12.31738281 43.13916016 C-12.35567157 40.88693764 -12.39052461 38.634654 -12.421875 36.38232422 C-12.46752737 33.14528553 -12.52552215 29.90866764 -12.5859375 26.671875 C-12.60326431 25.16074127 -12.60326431 25.16074127 -12.62094116 23.61907959 C-12.64081085 22.67840637 -12.66068054 21.73773315 -12.68115234 20.76855469 C-12.69447601 19.94248718 -12.70779968 19.11641968 -12.7215271 18.26531982 C-13.02586307 15.78960922 -13.82293118 14.17791383 -15 12 C-15.23938724 7.91445784 -14.62695289 4.81503875 -12.125 1.5625 C-7.96492179 -1.49638104 -4.8863851 -1.11443871 0 0 Z " fill="#0595B2" transform="translate(259,530)"/>
<path d="M0 0 C0.33 0 0.66 0 1 0 C1.09796875 1.05058594 1.1959375 2.10117187 1.296875 3.18359375 C2.65762595 16.95274896 2.65762595 16.95274896 10.1875 28.1875 C14.08110098 32.37312106 13.6251244 37.02817993 13.81640625 42.5 C14.29625995 51.64784933 17.56140283 58.49701686 24 65 C27.79868029 68.04654159 31.35469266 69.85485767 36.0625 71 C40.39024441 72.45669675 41.5806057 75.31397933 43.625 79.25 C44.46611328 80.98056641 44.46611328 80.98056641 45.32421875 82.74609375 C47.41238481 86.80073787 49.86782112 89.7150319 53 93 C46.89772346 90.2835027 43.61297097 85.4944628 41 79.5 C38.36898557 74.41853095 34.21131267 72.82166689 29.23876953 70.59155273 C21.00229686 66.80625704 16.16501952 60.38173512 13 52 C11.46390183 47.16348518 10.94851919 42.99450993 11.3125 37.9375 C11.39166008 34.91079095 11.3360496 33.4821986 9.58984375 30.9765625 C8.34234646 29.67874154 7.08684096 28.38857976 5.82421875 27.10546875 C-0.82154104 19.43509503 -0.50424475 9.59465713 0 0 Z " fill="#1454B2" transform="translate(115,486)"/>
<path d="M0 0 C0.97001953 0.00451172 1.94003906 0.00902344 2.93945312 0.01367188 C5.3138676 0.0253685 7.68815021 0.04175914 10.0625 0.0625 C10.0625 0.7225 10.0625 1.3825 10.0625 2.0625 C11.0525 2.3925 12.0425 2.7225 13.0625 3.0625 C14.76230773 6.46211547 14.26388751 10.34290607 14.30859375 14.0859375 C14.34153235 15.92969224 14.37474399 17.77344213 14.40820312 19.6171875 C14.45562386 22.52926279 14.50005147 25.44131838 14.53930664 28.35351562 C14.57903072 31.16036647 14.63057539 33.96681072 14.68359375 36.7734375 C14.6920079 37.6433432 14.70042206 38.5132489 14.70909119 39.40951538 C14.73405418 40.63065536 14.73405418 40.63065536 14.75952148 41.87646484 C14.76982895 42.58991058 14.78013641 43.30335632 14.79075623 44.03842163 C15.1096886 46.41398338 15.81117783 48.02512026 17.0625 50.0625 C18.0525 50.5575 18.0525 50.5575 19.0625 51.0625 C19.0625 51.7225 19.0625 52.3825 19.0625 53.0625 C15.82179272 52.05676326 15.08268477 51.09991902 13.4440918 48.06225586 C11.64062117 43.5966789 11.68168383 39.38795104 11.76953125 34.62890625 C11.77377609 33.75096909 11.77802094 32.87303192 11.78239441 31.9684906 C11.7990771 29.1870042 11.83670915 26.40626436 11.875 23.625 C11.89006032 21.72982823 11.90374636 19.83464502 11.91601562 17.93945312 C11.9489464 13.31351803 12.00065572 8.68813523 12.0625 4.0625 C10.80590576 4.032771 10.80590576 4.032771 9.52392578 4.00244141 C6.41884166 3.92439388 3.31415461 3.83770365 0.20947266 3.74511719 C-1.79636971 3.68795964 -3.80248918 3.64081404 -5.80859375 3.59375 C-7.06542969 3.55507813 -8.32226562 3.51640625 -9.6171875 3.4765625 C-10.77976074 3.4451416 -11.94233398 3.4137207 -13.14013672 3.38134766 C-15.9375 3.0625 -15.9375 3.0625 -17.9375 1.0625 C-11.92889451 0.00411873 -6.09122439 -0.05412571 0 0 Z " fill="#0B71CF" transform="translate(191.9375,508.9375)"/>
<path d="M0 0 C-1.0621875 0.03738281 -2.124375 0.07476562 -3.21875 0.11328125 C-14.66262179 0.60460301 -24.05211191 2.07756304 -33 10 C-38.36953376 17.04107305 -41.51620092 24.05251737 -41 33 C-40.67 33.66 -40.34 34.32 -40 35 C-40.2165625 36.2684375 -40.2165625 36.2684375 -40.4375 37.5625 C-41.70937128 45.3350467 -41.12331452 50.73468695 -37.77734375 57.93359375 C-37.52082031 58.61550781 -37.26429688 59.29742188 -37 60 C-37.33 60.66 -37.66 61.32 -38 62 C-38.82011312 60.44148245 -39.63076213 58.87798284 -40.4375 57.3125 C-40.88996094 56.44238281 -41.34242188 55.57226562 -41.80859375 54.67578125 C-45.9742104 45.32021598 -45.52422025 30.75710571 -42.05078125 21.2421875 C-36.38513645 9.15267035 -29.9454128 3.3545298 -17.5 -1.3125 C-11.43574419 -2.50369311 -5.49875788 -3.18548733 0 0 Z " fill="#0D52B8" transform="translate(767,475)"/>
<path d="M0 0 C3.24790781 1.38193918 4.97508798 2.85418609 7.0625 5.6875 C7.79146484 6.65236328 7.79146484 6.65236328 8.53515625 7.63671875 C12.19156381 13.53572295 13.55635972 18.87667003 14.25 25.6875 C14.34023438 26.43322266 14.43046875 27.17894531 14.5234375 27.94726562 C15.27084083 34.70403278 15.27084083 34.70403278 14 38 C8.93486556 39.68837815 2.06513444 39.68837815 -3 38 C-4.55853267 37.78196693 -6.12182651 37.59633644 -7.6875 37.4375 C-8.49574219 37.35371094 -9.30398438 37.26992188 -10.13671875 37.18359375 C-11.05904297 37.09271484 -11.05904297 37.09271484 -12 37 C-12.33 37.66 -12.66 38.32 -13 39 C-14.03125 38.835 -15.0625 38.67 -16.125 38.5 C-20.74757412 37.90353882 -24.55279467 37.51759822 -29 39 C-29.66 38.67 -30.32 38.34 -31 38 C-31.33 38.66 -31.66 39.32 -32 40 C-32 39.01 -32 38.02 -32 37 C-33.32 36.67 -34.64 36.34 -36 36 C-19.83 36 -3.66 36 13 36 C11.21209635 16.98485161 11.21209635 16.98485161 1.390625 2.49609375 C0 1 0 1 0 0 Z " fill="#0B48A1" transform="translate(504,480)"/>
<path d="M0 0 C3.52577973 2.83595326 5.35313407 4.83363681 6.296875 9.31640625 C6.63657272 13.07267914 6.49186736 15.42249237 4.3046875 18.578125 C3.66789062 19.31546875 3.03109375 20.0528125 2.375 20.8125 C-0.24025427 23.8618653 -1.65111161 25.74394914 -1.75 29.8125 C-1.12866289 36.52997478 0.18065073 42.23787104 5.4375 46.75 C6.57818341 47.61103199 7.7233908 48.46613661 8.875 49.3125 C9.535 49.9725 10.195 50.6325 10.875 51.3125 C6.66608138 50.8198899 4.89489716 49.79920851 2.1875 46.5625 C1.60613281 45.88703125 1.02476562 45.2115625 0.42578125 44.515625 C-3.73559942 38.60373911 -4.82133872 31.4257322 -4.125 24.3125 C-2.56693186 22.05641734 -0.92129382 20.63840541 1.203125 18.921875 C3.16636428 17.03202784 3.57894696 15.91666928 4 13.25 C3.86402153 8.96667835 3.35932427 6.79055398 0.875 3.3125 C-2.72125617 1.17418552 -5.99523437 0.7962793 -10.125 1.3125 C-12.82490662 3.11243774 -14.6668865 4.396273 -16.125 7.3125 C-16.35833287 13.39766056 -16.35833287 13.39766056 -15.125 19.3125 C-15.785 19.3125 -16.445 19.3125 -17.125 19.3125 C-19.10324333 14.54144255 -19.52962716 11.31648425 -18.125 6.3125 C-16.00649528 3.03370655 -13.88214763 -0.10847802 -10.07421875 -1.36328125 C-5.90793446 -2.05627042 -3.83107629 -2.0687812 0 0 Z " fill="#1065D2" transform="translate(166.125,452.6875)"/>
<path d="M0 0 C0.495 0.99 0.495 0.99 1 2 C-3.16290362 0.71484955 -6.8517961 -0.88097663 -10.6875 -2.9375 C-19.54369939 -7.387253 -27.97170728 -9.14489652 -37.75 -10.25 C-38.55445557 -10.34249023 -39.35891113 -10.43498047 -40.18774414 -10.53027344 C-44.99981111 -11.01033476 -49.2647024 -11.06606176 -54 -10 C-55.32229189 -7.35541621 -55.09677194 -5.32238699 -55.0625 -2.375 C-55.05347656 -1.37210937 -55.04445312 -0.36921875 -55.03515625 0.6640625 C-55.02355469 1.43492187 -55.01195312 2.20578125 -55 3 C-51.70039859 4.6498007 -48.00872116 4.38258361 -44.375 4.5625 C-43.57320312 4.60568359 -42.77140625 4.64886719 -41.9453125 4.69335938 C-39.9637489 4.79951457 -37.98189729 4.90026855 -36 5 C-36 5.33 -36 5.66 -36 6 C-38.39527434 6.22295635 -40.79001341 6.42874063 -43.1875 6.625 C-44.19780273 6.72167969 -44.19780273 6.72167969 -45.22851562 6.8203125 C-49.33767401 7.1410273 -52.4156952 7.13616703 -56 5 C-58.76160578 1.04169838 -58.65371823 -3.35777305 -58 -8 C-56.4375 -11 -56.4375 -11 -54 -13 C-36.4495012 -16.6879911 -14.65528474 -9.6969134 0 0 Z " fill="#0683B2" transform="translate(295,387)"/>
<path d="M0 0 C2.53309738 2.77823584 3 4.36998942 3 8.125 C2 11 2 11 -0.25 13 C-3 14 -3 14 -5.6875 13.3125 C-8 12 -8 12 -10 10 C-10.125 6.375 -10.125 6.375 -10 3 C-9.34 3 -8.68 3 -8 3 C-8 2.34 -8 1.68 -8 1 C-5.13879744 -0.43060128 -3.15989415 -0.38692581 0 0 Z " fill="#0E7CE9" transform="translate(202,408)"/>
<path d="M0 0 C0.33 0.66 0.66 1.32 1 2 C1.99 2.33 2.98 2.66 4 3 C4 3.66 4 4.32 4 5 C4.66 5.33 5.32 5.66 6 6 C3.375 11.75 3.375 11.75 0 14 C-2.63434254 13.67873872 -4.62710097 13.18644952 -7 12 C-7.81309902 8.08234111 -8.37553268 4.82092412 -7 1 C-3.535 0.505 -3.535 0.505 0 0 Z " fill="#1074E8" transform="translate(181,524)"/>
<path d="M0 0 C2.1875 1.4375 2.1875 1.4375 4.1875 3.4375 C4.7440371 8.66894876 4.7440371 8.66894876 2.875 11.25 C1.1875 12.4375 1.1875 12.4375 -1.8125 13.4375 C-4.3125 12.9375 -4.3125 12.9375 -6.8125 11.4375 C-8.14505953 9.15160737 -8.92689044 6.95449559 -9.8125 4.4375 C-3.767862 -0.7535724 -3.767862 -0.7535724 0 0 Z " fill="#1271EA" transform="translate(161.8125,457.5625)"/>
<path d="M0 0 C0.33 0 0.66 0 1 0 C1 17.82 1 35.64 1 54 C5.62 54 10.24 54 15 54 C15 50.37 15 46.74 15 43 C15.33 43 15.66 43 16 43 C16.36340286 44.76896102 16.71540883 46.54026626 17.0625 48.3125 C17.25972656 49.29863281 17.45695313 50.28476562 17.66015625 51.30078125 C18 54 18 54 17 57 C15.576875 56.7215625 15.576875 56.7215625 14.125 56.4375 C9.35520074 55.73231407 4.75075712 56.37867362 0 57 C-1.00613356 53.98159933 -1.12670084 51.96512385 -1.12939453 48.81005859 C-1.13254669 47.75241302 -1.13569885 46.69476746 -1.13894653 45.60507202 C-1.1369223 44.46438263 -1.13489807 43.32369324 -1.1328125 42.1484375 C-1.13376923 40.97866364 -1.13472595 39.80888977 -1.13571167 38.60366821 C-1.13639245 36.13063503 -1.13454525 33.65760006 -1.13037109 31.18457031 C-1.12501188 27.38342311 -1.13032449 23.58239356 -1.13671875 19.78125 C-1.13605814 17.38281224 -1.13477733 14.98437455 -1.1328125 12.5859375 C-1.13483673 11.44119965 -1.13686096 10.29646179 -1.13894653 9.11703491 C-1.13579437 8.06569366 -1.13264221 7.01435242 -1.12939453 5.93115234 C-1.12859894 5.00088226 -1.12780334 4.07061218 -1.12698364 3.1121521 C-1 1 -1 1 0 0 Z " fill="#0C48A1" transform="translate(806,495)"/>
<path d="M0 0 C3.85816731 3.50153 5.71910483 7.88674523 6.1875 13.078125 C6.1875 14.71994004 6.10241361 16.36138226 6 18 C4.35 18 2.7 18 1 18 C0.505 19.485 0.505 19.485 0 21 C-3.86088256 20.79364248 -7.37369737 20.38344494 -11 19 C-12.66036841 16.77476398 -13.41632957 14.83852148 -14.21875 12.19140625 C-15.44394123 8.75474486 -17.09319323 7.45569716 -20.31640625 5.8359375 C-25.48852418 4.22482653 -31.96872149 3.71909646 -37.04296875 5.86328125 C-38.81808561 7.02302865 -38.81808561 7.02302865 -41 9 C-41.99 9.495 -41.99 9.495 -43 10 C-41.54163185 6.15521125 -39.63541701 4.8177085 -36 3 C-29.59062393 0.64989544 -23.39608691 2.00246456 -17.3125 4.58984375 C-13.59476372 6.85690928 -11.56793158 9.98114379 -10 14 C-10 14.99 -10 15.98 -10 17 C-5.05 17 -0.1 17 5 17 C4.360625 14.9375 3.72125 12.875 3.0625 10.75 C0.84821429 3.60714286 0.84821429 3.60714286 0 0 Z " fill="#0E52B3" transform="translate(707,458)"/>
<path d="M0 0 C5.14208354 4.44720739 7.60303893 9.09568462 8.29647827 15.91601562 C8.44175102 19.36315226 8.49343101 22.79985668 8.51171875 26.25 C8.52966995 27.50385498 8.54762115 28.75770996 8.56611633 30.04956055 C8.61091081 33.35715861 8.64331531 36.66456386 8.66955566 39.97235107 C8.69951809 43.35800346 8.7459938 46.74342657 8.79101562 50.12890625 C8.87578158 56.75249763 8.94419734 63.37610467 9 70 C4.25 71.125 4.25 71.125 2 70 C-0.3400417 70.28241883 -2.67504723 70.61250787 -5 71 C-5.495 68.03 -5.495 68.03 -6 65 C-5.67 65.99 -5.34 66.98 -5 68 C0.94 67.505 0.94 67.505 7 67 C6.95563325 59.79537604 6.88557358 52.59161061 6.79248047 45.38745117 C6.76438707 42.94058086 6.74311517 40.49362175 6.72900391 38.04663086 C6.70741338 34.51370158 6.66067886 30.98182693 6.609375 27.44921875 C6.60814636 26.36855637 6.60691772 25.28789398 6.60565186 24.17448425 C6.43595096 15.22198199 4.07791994 7.92191834 0 0 Z " fill="#027C9C" transform="translate(904,481)"/>
<path d="M0 0 C1.36682568 4.35330715 0.20741893 6.8231561 -1.4375 11.0625 C-3.39784949 15.90384581 -3.39784949 15.90384581 -4 21 C2.27 21.33 8.54 21.66 15 22 C15 16.21890814 14.97904569 14.14970967 12.9375 9.25 C10.89296826 4.32109521 10.89296826 4.32109521 12 1 C13.1773496 4.07935966 14.33997891 7.16407516 15.5 10.25 C15.83386719 11.12269531 16.16773438 11.99539063 16.51171875 12.89453125 C16.82753906 13.73886719 17.14335938 14.58320313 17.46875 15.453125 C17.76201172 16.22817383 18.05527344 17.00322266 18.35742188 17.80175781 C19 20 19 20 19 24 C10.42 24 1.84 24 -7 24 C-5.875 16.125 -5.875 16.125 -4.58984375 12.59765625 C-4.18862305 11.48100586 -4.18862305 11.48100586 -3.77929688 10.34179688 C-3.50150391 9.58962891 -3.22371094 8.83746094 -2.9375 8.0625 C-2.65583984 7.28326172 -2.37417969 6.50402344 -2.08398438 5.70117188 C-1.39532294 3.79859875 -0.69850097 1.89898275 0 0 Z M16 19 C17 21 17 21 17 21 Z " fill="#0D53BC" transform="translate(555,486)"/>
<path d="M0 0 C0.33 0 0.66 0 1 0 C1.04633899 9.18815053 1.08187715 18.37626083 1.10362434 27.56450272 C1.11406186 31.83096697 1.12822048 36.09735128 1.15087891 40.36376953 C1.17260842 44.48104386 1.18456887 48.59824129 1.18975449 52.71556854 C1.19345005 54.28644776 1.20066652 55.85732277 1.21146011 57.42816925 C1.22597658 59.62831216 1.22797789 61.82813722 1.22705078 64.02832031 C1.231492 65.28074524 1.23593323 66.53317017 1.24050903 67.82354736 C1.01350792 70.82159813 0.58299537 72.48812257 -1 75 C-2.125 71.25 -2.125 71.25 -1 69 C-0.92805131 66.11629667 -0.90708292 63.25760336 -0.9375 60.375 C-0.94201172 59.57320312 -0.94652344 58.77140625 -0.95117188 57.9453125 C-0.96296832 55.96350994 -0.98090395 53.98174567 -1 52 C-1.33 52 -1.66 52 -2 52 C-2.07407957 47.8515439 -2.04918376 43.86501068 -1.5 39.75 C-0.91189085 35.96971248 -0.91189085 35.96971248 -1 32 C-0.98839844 30.88367188 -0.97679687 29.76734375 -0.96484375 28.6171875 C-0.95582031 27.38226562 -0.94679687 26.14734375 -0.9375 24.875 C-0.92589844 23.63492188 -0.91429687 22.39484375 -0.90234375 21.1171875 C-0.77921422 18.09241561 -0.77921422 18.09241561 -2 16 C-1.34 16 -0.68 16 0 16 C0 10.72 0 5.44 0 0 Z " fill="#01A4F7" transform="translate(226,504)"/>
<path d="M0 0 C0.33 0 0.66 0 1 0 C1.12117187 0.78503906 1.24234375 1.57007813 1.3671875 2.37890625 C1.53476563 3.42949219 1.70234375 4.48007812 1.875 5.5625 C2.03742188 6.59503906 2.19984375 7.62757813 2.3671875 8.69140625 C3.67363314 15.52202018 5.09606391 19.74208244 9.9375 24.875 C11.25041016 26.29425781 11.25041016 26.29425781 12.58984375 27.7421875 C14.86246329 30.1862659 14.86246329 30.1862659 18 31 C18 32.98 18 34.96 18 37 C12.92327799 37.84612033 8.15130782 38.26193091 3 38 C2.34 37.34 1.68 36.68 1 36 C4.96 36 8.92 36 13 36 C13 34.35 13 32.7 13 31 C11.3524116 29.64316249 9.68083079 28.31543279 8 27 C2.84719781 20.31017613 -0.29858988 14.78019897 -0.125 6.1875 C-0.10695312 5.02605469 -0.08890625 3.86460937 -0.0703125 2.66796875 C-0.04710937 1.78753906 -0.02390625 0.90710938 0 0 Z " fill="#1171D0" transform="translate(176,547)"/>
<path d="M0 0 C0.99 0 1.98 0 3 0 C3 0.66 3 1.32 3 2 C4.32 2.66 5.64 3.32 7 4 C7.01417969 5.12277344 7.02835938 6.24554688 7.04296875 7.40234375 C7.21004906 19.5990749 7.21004906 19.5990749 13 30 C15.85945352 32.56249185 18.82251321 34.84706233 22 37 C21.01 37.495 21.01 37.495 20 38 C19.37351563 37.566875 18.74703125 37.13375 18.1015625 36.6875 C17.28429687 36.130625 16.46703125 35.57375 15.625 35 C14.81289062 34.443125 14.00078125 33.88625 13.1640625 33.3125 C11.13681813 31.82714156 11.13681813 31.82714156 9 32 C5.18599028 25.57324347 4.47035893 20.89973297 4.75 13.5 C4.76804688 12.5821875 4.78609375 11.664375 4.8046875 10.71875 C4.85136898 8.47803908 4.91681478 6.23960201 5 4 C2.525 3.01 2.525 3.01 0 2 C0 1.34 0 0.68 0 0 Z " fill="#1169D9" transform="translate(151,472)"/>
<path d="M0 0 C2.36525962 2.17385132 3.86463711 4.29687083 5.375 7.125 C6.68574007 9.5751676 7.99913858 11.99857055 9.43359375 14.37890625 C14.01326075 22.04628075 14.01326075 22.04628075 13 27 C11.20006226 29.69990662 9.916227 31.5418865 7 33 C4.06911263 33.28363426 1.84635506 33.49797067 -1 33 C-4.32883691 29.94106878 -6.24807902 26.14928652 -8 22 C-7.67 21.34 -7.34 20.68 -7 20 C-6.57847656 20.71027344 -6.15695312 21.42054688 -5.72265625 22.15234375 C-5.17480469 23.07144531 -4.62695312 23.99054687 -4.0625 24.9375 C-3.51722656 25.85402344 -2.97195313 26.77054688 -2.41015625 27.71484375 C-1.19267827 29.88412677 -1.19267827 29.88412677 0 31 C3.56299065 31.39588785 5.37639795 31.42667508 8.375 29.375 C10.53903914 26.21217357 10.58276756 24.78798913 10 21 C7.8363138 15.35982924 4.39321798 10.27841548 1.171875 5.19921875 C0 3 0 3 0 0 Z " fill="#048ABA" transform="translate(276,504)"/>
<path d="M0 0 C1 4 2 8 3 12 C0 10 0 10 -0.73046875 7.8359375 C-0.88128906 7.02382813 -1.03210938 6.21171875 -1.1875 5.375 C-1.34605469 4.55773437 -1.50460937 3.74046875 -1.66796875 2.8984375 C-1.77753906 2.27195312 -1.88710938 1.64546875 -2 1 C-2.804375 1.165 -3.60875 1.33 -4.4375 1.5 C-8.65887352 2.09247348 -12.74664545 2.08506709 -17 2 C-16.52129086 4.08343851 -16.04201531 6.16674689 -15.5625 8.25 C-15.16224609 9.99023438 -15.16224609 9.99023438 -14.75390625 11.765625 C-14.19032 14.18349761 -13.61330049 16.59443304 -13 19 C-18.5285841 14.22531374 -18.49536002 7.83919971 -19 1 C-15.92230272 -0.02589909 -13.28831247 -0.34588149 -10.0625 -0.625 C-8.50208984 -0.76808594 -8.50208984 -0.76808594 -6.91015625 -0.9140625 C-4.31785591 -0.99061365 -2.44619061 -0.78985432 0 0 Z " fill="#0D4FB2" transform="translate(661,518)"/>
<path d="M0 0 C0.66 0.33 1.32 0.66 2 1 C1.41992188 1.69222656 1.41992188 1.69222656 0.828125 2.3984375 C-3.31614616 7.58903454 -5.82036122 12.74315455 -8 19 C-7.00419922 18.96519531 -7.00419922 18.96519531 -5.98828125 18.9296875 C1.69782685 18.77259916 6.16743536 19.66736947 12 25 C12 25.66 12 26.32 12 27 C11.01 27 10.02 27 9 27 C8.4225 26.38125 7.845 25.7625 7.25 25.125 C2.63872938 20.76991108 -3.93737578 20.63817097 -10 20 C-8.22331103 12.53478932 -5.54178309 5.54178309 0 0 Z " fill="#135BBD" transform="translate(156,397)"/>
<path d="M0 0 C2.92908678 1.07493729 5.29813463 2.39889459 8 4 C8 4.99 8 5.98 8 7 C7.071875 6.34 6.14375 5.68 5.1875 5 C0.31797191 2.21316213 -4.53728253 2.30551499 -10 3 C-14.2384634 4.71342137 -16.30343727 7.37358805 -19 11 C-19.66 11.66 -20.32 12.32 -21 13 C-20.51696726 8.68986172 -19.3982201 6.9764837 -16.0625 4.25 C-15.35222656 3.65703125 -14.64195312 3.0640625 -13.91015625 2.453125 C-9.60593099 -0.82125495 -5.24047264 -0.58650639 0 0 Z " fill="#0F54B8" transform="translate(763,488)"/>
<path d="M0 0 C3.21654084 1.60827042 3.66967288 4.98364129 4.8203125 8.2109375 C5.08383514 8.93487701 5.34735779 9.65881653 5.61886597 10.4046936 C6.17532248 11.93846391 6.72821439 13.47353138 7.27783203 15.00976562 C8.12015263 17.36146647 8.97515524 19.70825648 9.83203125 22.0546875 C10.37055502 23.54399503 10.90834005 25.03356994 11.4453125 26.5234375 C11.70152374 27.22665131 11.95773499 27.92986511 12.22171021 28.65438843 C13.26054772 31.57472334 14 33.87497427 14 37 C10.62306068 34.74870712 10.52862845 34.30699873 9.57421875 30.58984375 C7.69374484 23.7683725 5.18541668 17.214795 2.69726562 10.59570312 C2.34986328 9.65791016 2.00246094 8.72011719 1.64453125 7.75390625 C1.32846924 6.91158447 1.01240723 6.0692627 0.68676758 5.20141602 C0 3 0 3 0 0 Z " fill="#0D4DAC" transform="translate(592,514)"/>
<path d="M0 0 C3.88862987 1.26117725 5.89375599 2.45264167 8 6 C8 6.66 8 7.32 8 8 C8.66 8.33 9.32 8.66 10 9 C11.50835014 14.50667512 13.03760321 20.72904368 10.8125 26.1875 C9 29 9 29 6 31 C6.33 30.21625 6.66 29.4325 7 28.625 C8.11077241 24.59845003 8.1150877 21.21711617 7.97265625 17.07421875 C8 15 8 15 9 14 C5.56527832 6.25141033 5.56527832 6.25141033 0 0 Z " fill="#01B0F2" transform="translate(262,436)"/>
<path d="M0 0 C0 9.24 0 18.48 0 28 C-0.33 28 -0.66 28 -1 28 C-1 19.42 -1 10.84 -1 2 C-5.29 2 -9.58 2 -14 2 C-14.33 1.34 -14.66 0.68 -15 0 C-13.25093341 -0.19601608 -11.50068154 -0.38147403 -9.75 -0.5625 C-8.77546875 -0.66691406 -7.8009375 -0.77132813 -6.796875 -0.87890625 C-4 -1 -4 -1 0 0 Z " fill="#068AAF" transform="translate(940,476)"/>
<path d="M0 0 C2.36049251 2.14590229 3.61903604 4.14600782 5 7 C5.66 7.66 6.32 8.32 7 9 C7.71927295 11.31765729 8.3909893 13.65095874 9 16 C2.51335141 17.72977296 -3.99271477 18.00364261 -10 15 C-2.08 14.505 -2.08 14.505 6 14 C5.01 12.06125 4.02 10.1225 3 8.125 C0 2.25 0 2.25 0 0 Z " fill="#0C48A0" transform="translate(440,534)"/>
<path d="M0 0 C0.33 0 0.66 0 1 0 C1 4.29 1 8.58 1 13 C-4 14 -4 14 -6 13 C-8.3400417 13.28241883 -10.67504723 13.61250787 -13 14 C-13.33 12.02 -13.66 10.04 -14 8 C-13.67 8.99 -13.34 9.98 -13 11 C-7.06 10.505 -7.06 10.505 -1 10 C-1.020625 8.72125 -1.04125 7.4425 -1.0625 6.125 C-1.125 2.25 -1.125 2.25 0 0 Z " fill="#0A8DB5" transform="translate(912,538)"/>
<path d="M0 0 C0.66 0 1.32 0 2 0 C4.68219822 5.36439644 5.3152595 9.01006953 5 15 C1.18483536 16.30062431 -2.27561763 15.89369853 -6.25 15.5625 C-7.51328125 15.46066406 -8.7765625 15.35882813 -10.078125 15.25390625 C-11.04234375 15.17011719 -12.0065625 15.08632813 -13 15 C-13 14.67 -13 14.34 -13 14 C-11.08416353 13.8041991 -9.16727461 13.61867786 -7.25 13.4375 C-5.64898438 13.28087891 -5.64898438 13.28087891 -4.015625 13.12109375 C-1.35858796 13.01439926 0.49960572 13.18069605 3 14 C2.58846263 9.02906176 2.20399168 4.55491614 0 0 Z " fill="#0499BF" transform="translate(892,491)"/>
<path d="M0 0 C3.01657791 0.14030595 5.23841273 0.29351465 7.51171875 2.40234375 C8.73256066 3.88904235 9.87246522 5.44134898 11 7 C12.32 6.67 13.64 6.34 15 6 C14.01 4.35 13.02 2.7 12 1 C14.46800047 2.15173355 16.04783565 3.04783565 18 5 C17.625 7.125 17.625 7.125 17 9 C14.4375 9.875 14.4375 9.875 11 10 C9.02137964 8.66790252 7.40098633 7.15252801 5.6796875 5.50390625 C3.63740413 3.67535021 1.61092737 2.79119011 -1 2 C-0.67 1.34 -0.34 0.68 0 0 Z " fill="#126AD8" transform="translate(156,423)"/>
<path d="M0 0 C2.125 2.625 2.125 2.625 3 5 C2.67 5.66 2.34 6.32 2 7 C1.5875 6.21625 1.175 5.4325 0.75 4.625 C-1.15478734 1.76781899 -1.86787244 1.18053025 -5 0 C-8.33646812 -0.3665533 -11.65142348 -0.50403739 -15.00390625 -0.65625 C-18 -1 -18 -1 -21 -3 C-13.15317058 -4.22150306 -6.74190695 -4.72081012 0 0 Z " fill="#0D70BA" transform="translate(225,377)"/>
<path d="M0 0 C3.92705649 0.86593802 5.59787206 1.41081665 7.90625 4.79296875 C8.4321875 5.91316406 8.958125 7.03335938 9.5 8.1875 C12.17211 13.55552498 14.87403822 17.6727718 19 22 C12.77839197 19.23038094 9.47410018 14.10791545 6.4375 8.1875 C4.82065709 5.1007999 4.32038201 4.17799001 1.1875 2.4375 C0.465625 2.293125 -0.25625 2.14875 -1 2 C-0.67 1.34 -0.34 0.68 0 0 Z " fill="#135BB8" transform="translate(149,557)"/>
<path d="M0 0 C4.56228541 -0.11625936 9.12418928 -0.18727408 13.6875 -0.25 C14.98107422 -0.28351563 16.27464844 -0.31703125 17.60742188 -0.3515625 C18.85458984 -0.36445313 20.10175781 -0.37734375 21.38671875 -0.390625 C22.53358154 -0.41157227 23.68044434 -0.43251953 24.86206055 -0.45410156 C28.62711331 0.09075163 30.27304023 1.41821008 33 4 C32.67 4.66 32.34 5.32 32 6 C31.1028125 5.2884375 31.1028125 5.2884375 30.1875 4.5625 C27.00351338 2.28822384 24.46383091 1.87282955 20.65625 1.8671875 C19.82222656 1.86589844 18.98820312 1.86460937 18.12890625 1.86328125 C16.82759766 1.86908203 16.82759766 1.86908203 15.5 1.875 C14.63246094 1.87113281 13.76492187 1.86726563 12.87109375 1.86328125 C12.03707031 1.86457031 11.20304688 1.86585938 10.34375 1.8671875 C9.20196289 1.86887939 9.20196289 1.86887939 8.03710938 1.87060547 C5.79675812 1.9258285 5.79675812 1.9258285 3 3 C3 2.34 3 1.68 3 1 C2.01 0.67 1.02 0.34 0 0 Z " fill="#0D66C4" transform="translate(178,504)"/>
<path d="M0 0 C6 7.71428571 6 7.71428571 6 11 C6.515625 11.2475 7.03125 11.495 7.5625 11.75 C10.77184151 13.39581616 13.87585664 15.1976096 17 17 C17.33 15.68 17.66 14.36 18 13 C18 14.65 18 16.3 18 18 C12.05470692 17.64328242 9.20300625 16.20300625 5 12 C1.87465736 8.02997015 0.47964028 5.03622295 0 0 Z " fill="#086CC7" transform="translate(195,456)"/>
<path d="M0 0 C0 4.08481881 -1.70119331 5.84704653 -4 9.1875 C-4.7425 10.27417969 -5.485 11.36085938 -6.25 12.48046875 C-6.8275 13.31191406 -7.405 14.14335938 -8 15 C-9.56908332 11.86183337 -9.07101124 10.33903504 -8 7 C-5.53310272 4.4029921 -2.83529239 2.18298139 0 0 Z " fill="#06A0C4" transform="translate(304,540)"/>
<path d="M0 0 C3.60867272 2.40578181 4.76800109 5.08532703 6.5625 8.875 C6.86607422 9.50019531 7.16964844 10.12539063 7.48242188 10.76953125 C8.3270824 12.51037844 9.16380426 14.25507106 10 16 C10.42152344 16.76570313 10.84304688 17.53140625 11.27734375 18.3203125 C11.51582031 18.87460937 11.75429688 19.42890625 12 20 C11.67 20.66 11.34 21.32 11 22 C9.15984502 18.7121022 7.32904953 15.41908674 5.5 12.125 C4.97535156 11.18785156 4.45070313 10.25070312 3.91015625 9.28515625 C3.41386719 8.38925781 2.91757813 7.49335938 2.40625 6.5703125 C1.94541016 5.74289551 1.48457031 4.91547852 1.00976562 4.06298828 C0 2 0 2 0 0 Z " fill="#01B2F7" transform="translate(253,494)"/>
<path d="M0 0 C0.66 0.33 1.32 0.66 2 1 C1.07438017 5.76033058 1.07438017 5.76033058 0.4375 7.8125 C-0.70935772 13.54678861 0.04994239 19.29965432 1 25 C-1 24 -1 24 -1.61328125 22.296875 C-2.88853106 14.72266402 -2.244687 7.29523274 0 0 Z " fill="#1975F7" transform="translate(118,478)"/>
<path d="M0 0 C0.66 0 1.32 0 2 0 C2 7.26 2 14.52 2 22 C1.67 22 1.34 22 1 22 C1 19.36 1 16.72 1 14 C0.34 13.67 -0.32 13.34 -1 13 C-0.67 12.67 -0.34 12.34 0 12 C0.04063832 10.33382885 0.042721 8.66611905 0 7 C-0.33 7 -0.66 7 -1 7 C-0.67 4.69 -0.34 2.38 0 0 Z " fill="#049DF6" transform="translate(225,394)"/>
<path d="M0 0 C0 0.33 0 0.66 0 1 C-1.00160156 1.10957031 -2.00320313 1.21914063 -3.03515625 1.33203125 C-12.85224617 2.43964037 -12.85224617 2.43964037 -22 6 C-22.33 5.01 -22.66 4.02 -23 3 C-15.19923076 0.21401099 -8.20856657 -0.13145391 0 0 Z " fill="#0489AF" transform="translate(895,516)"/>
<path d="M0 0 C4.62 0 9.24 0 14 0 C14 0.99 14 1.98 14 3 C9.71 3 5.42 3 1 3 C0.67 2.01 0.34 1.02 0 0 Z " fill="#02A6EC" transform="translate(246,432)"/>
<path d="M0 0 C4.62 0 9.24 0 14 0 C14.33 1.32 14.66 2.64 15 4 C14.34 4.66 13.68 5.32 13 6 C13 5.01 13 4.02 13 3 C8.71 2.34 4.42 1.68 0 1 C0 0.67 0 0.34 0 0 Z " fill="#0F52B4" transform="translate(501,527)"/>
<path d="M0 0 C0.33 0 0.66 0 1 0 C1.36340286 1.76896102 1.71540883 3.54026626 2.0625 5.3125 C2.25972656 6.29863281 2.45695313 7.28476562 2.66015625 8.30078125 C3 11 3 11 2 14 C-0.4375 13.625 -0.4375 13.625 -3 13 C-3.33 12.34 -3.66 11.68 -4 11 C-2.68 11 -1.36 11 0 11 C0 7.37 0 3.74 0 0 Z " fill="#0D54AA" transform="translate(821,538)"/>
<path d="M0 0 C7.76785714 -0.66964286 7.76785714 -0.66964286 11.5 2.375 C14 5 14 5 14 7 C13.01 7 12.02 7 11 7 C10.4225 6.38125 9.845 5.7625 9.25 5.125 C6.39303758 2.42675771 3.78026645 1.87236918 0 1 C0 0.67 0 0.34 0 0 Z " fill="#136DDA" transform="translate(154,417)"/>
<path d="M0 0 C0.66 0.33 1.32 0.66 2 1 C-1.49359465 4.59634744 -5.11098131 7.83451967 -9 11 C-6.92623208 6.33402219 -4.25832657 2.83888438 0 0 Z " fill="#1477F8" transform="translate(161,395)"/>
<path d="M0 0 C2.46800047 1.15173355 4.04783565 2.04783565 6 4 C5.625 6.125 5.625 6.125 5 8 C3.35 8.33 1.7 8.66 0 9 C0.99 7.68 1.98 6.36 3 5 C2.01 3.35 1.02 1.7 0 0 Z " fill="#0D65D1" transform="translate(168,424)"/>
<path d="M0 0 C5.66153846 1.47692308 5.66153846 1.47692308 7.375 4.125 C7.58125 4.74375 7.7875 5.3625 8 6 C7.01 6.495 7.01 6.495 6 7 C5.34 6.01 4.68 5.02 4 4 C1.44816596 2.79549696 1.44816596 2.79549696 -1 2 C-0.67 1.34 -0.34 0.68 0 0 Z " fill="#1463CD" transform="translate(149,557)"/>
<path d="M0 0 C3.96 0 7.92 0 12 0 C12 0.99 12 1.98 12 3 C10.1128125 2.7525 10.1128125 2.7525 8.1875 2.5 C5.73543415 2.17841759 3.48349306 2 1 2 C0.67 1.34 0.34 0.68 0 0 Z " fill="#1774EB" transform="translate(503,517)"/>
<path d="M0 0 C0.66 0 1.32 0 2 0 C1.67 2.97 1.34 5.94 1 9 C0.34 8.67 -0.32 8.34 -1 8 C-1.08226668 4.95613276 -0.97608217 2.92824652 0 0 Z " fill="#09ACDB" transform="translate(897,540)"/>
<path d="M0 0 C0.99 0.33 1.98 0.66 3 1 C2.51917969 1.39832031 2.03835937 1.79664063 1.54296875 2.20703125 C-0.37391825 4.43450247 -0.47741643 5.78834669 -0.6875 8.6875 C-0.75324219 9.49574219 -0.81898438 10.30398438 -0.88671875 11.13671875 C-0.92410156 11.75160156 -0.96148437 12.36648438 -1 13 C-1.33 13 -1.66 13 -2 13 C-2.05416188 11.39620659 -2.09286638 9.79188594 -2.125 8.1875 C-2.14820313 7.29417969 -2.17140625 6.40085937 -2.1953125 5.48046875 C-2 3 -2 3 0 0 Z " fill="#02BBFC" transform="translate(241,376)"/>
<path d="M0 0 C0.33 0 0.66 0 1 0 C1.33 3.63 1.66 7.26 2 11 C0.68 10.34 -0.64 9.68 -2 9 C-1.34 9 -0.68 9 0 9 C0 6.03 0 3.06 0 0 Z " fill="#0592EA" transform="translate(211,553)"/>
<path d="M0 0 C1 4 1 4 1 4 Z " fill="#1D7BEB" transform="translate(804,492)"/>
<path d="M0 0 C0.66 0 1.32 0 2 0 C1.67 0.66 1.34 1.32 1 2 C0.67 1.34 0.34 0.68 0 0 Z " fill="#186CE3" transform="translate(579,534)"/>
<path d="M0 0 C0.66 0 1.32 0 2 0 C1.67 0.66 1.34 1.32 1 2 C0.67 1.34 0.34 0.68 0 0 Z " fill="#186FE7" transform="translate(577,528)"/>
<path d="M0 0 C3 1 3 1 3 1 Z " fill="#1778EC" transform="translate(473,504)"/>
<path d="M0 0 C3 1 3 1 3 1 Z " fill="#04A3EE" transform="translate(229,492)"/>
<path d="" fill="#186EE4" transform="translate(0,0)"/>
<path d="M0 0 C0.66 0.66 1.32 1.32 2 2 C1.34 2 0.68 2 0 2 C0 1.34 0 0.68 0 0 Z " fill="#0D89F1" transform="translate(204,406)"/>
<path d="M0 0 C2 1 2 1 2 1 Z " fill="#0BC2DE" transform="translate(212,607)"/>
<path d="M0 0 C2 1 2 1 2 1 Z " fill="#08CCE8" transform="translate(241,592)"/>
<path d="" fill="#1971D7" transform="translate(0,0)"/>
<path d="M0 0 C2 1 2 1 2 1 Z " fill="#196ADB" transform="translate(697,549)"/>
<path d="M0 0 C2 1 2 1 2 1 Z " fill="#1687F2" transform="translate(181,538)"/>
<path d="" fill="#176EE5" transform="translate(0,0)"/>
<path d="" fill="#1871E9" transform="translate(0,0)"/>
<path d="M0 0 C2 1 2 1 2 1 Z " fill="#1971E6" transform="translate(657,515)"/>
<path d="M0 0 C2 1 2 1 2 1 Z " fill="#1670E8" transform="translate(664,503)"/>
<path d="" fill="#1770EB" transform="translate(0,0)"/>
<path d="M0 0 C2 1 2 1 2 1 Z " fill="#1B76E5" transform="translate(789,487)"/>
<path d="M0 0 C2 1 2 1 2 1 Z " fill="#04B3EA" transform="translate(272,487)"/>
<path d="M0 0 C2 1 2 1 2 1 Z " fill="#1970DE" transform="translate(489,472)"/>
<path d="M0 0 C2 1 2 1 2 1 Z " fill="#147FF0" transform="translate(164,472)"/>
<path d="M0 0 C2 1 2 1 2 1 Z " fill="#157CF3" transform="translate(158,454)"/>
<path d="M0 0 C2 1 2 1 2 1 Z " fill="#176EDC" transform="translate(699,448)"/>
<path d="M0 0 C2 1 2 1 2 1 Z " fill="#1B76E7" transform="translate(137,424)"/>
<path d="M0 0 C2 1 2 1 2 1 Z " fill="#108BEF" transform="translate(200,422)"/>
<path d="M0 0 C2 1 2 1 2 1 Z " fill="#10B0E0" transform="translate(273,376)"/>
<path d="M0 0 C2 1 2 1 2 1 Z " fill="#1787E3" transform="translate(193,376)"/>
<path d="" fill="#19B2C5" transform="translate(0,0)"/>
<path d="" fill="#14B9D5" transform="translate(0,0)"/>
<path d="" fill="#0BC4DF" transform="translate(0,0)"/>
<path d="" fill="#06C6DE" transform="translate(0,0)"/>
<path d="" fill="#0AC7E3" transform="translate(0,0)"/>
<path d="" fill="#11B5E3" transform="translate(0,0)"/>
<path d="" fill="#1394E6" transform="translate(0,0)"/>
<path d="" fill="#168CEF" transform="translate(0,0)"/>
<path d="" fill="#0D9DEF" transform="translate(0,0)"/>
<path d="" fill="#1885EE" transform="translate(0,0)"/>
<path d="" fill="#1683EE" transform="translate(0,0)"/>
<path d="" fill="#10A7D1" transform="translate(0,0)"/>
<path d="" fill="#10A8DB" transform="translate(0,0)"/>
<path d="" fill="#1C7BE0" transform="translate(0,0)"/>
<path d="" fill="#196CD9" transform="translate(0,0)"/>
<path d="" fill="#1A6BDC" transform="translate(0,0)"/>
<path d="" fill="#1569DE" transform="translate(0,0)"/>
<path d="" fill="#1667D5" transform="translate(0,0)"/>
<path d="" fill="#176AD5" transform="translate(0,0)"/>
<path d="" fill="#176CDC" transform="translate(0,0)"/>
<path d="" fill="#1D77DC" transform="translate(0,0)"/>
<path d="" fill="#08C4E3" transform="translate(0,0)"/>
<path d="" fill="#1C6BD8" transform="translate(0,0)"/>
<path d="" fill="#1C69D7" transform="translate(0,0)"/>
<path d="" fill="#1A6BD8" transform="translate(0,0)"/>
<path d="" fill="#0FA5CF" transform="translate(0,0)"/>
<path d="" fill="#10AFDC" transform="translate(0,0)"/>
<path d="" fill="#189EC6" transform="translate(0,0)"/>
<path d="" fill="#12A9D5" transform="translate(0,0)"/>
<path d="" fill="#196ADE" transform="translate(0,0)"/>
<path d="" fill="#1B6ADA" transform="translate(0,0)"/>
<path d="" fill="#2172D1" transform="translate(0,0)"/>
<path d="" fill="#1C6CDC" transform="translate(0,0)"/>
<path d="" fill="#1F77E0" transform="translate(0,0)"/>
<path d="" fill="#2073DA" transform="translate(0,0)"/>
<path d="" fill="#1A6BDC" transform="translate(0,0)"/>
<path d="" fill="#1686F1" transform="translate(0,0)"/>
<path d="" fill="#166FE8" transform="translate(0,0)"/>
<path d="" fill="#1D74E2" transform="translate(0,0)"/>
<path d="" fill="#1A6FE1" transform="translate(0,0)"/>
<path d="" fill="#1784EB" transform="translate(0,0)"/>
<path d="" fill="#1B6FDD" transform="translate(0,0)"/>
<path d="" fill="#1984EA" transform="translate(0,0)"/>
<path d="" fill="#1A71E2" transform="translate(0,0)"/>
<path d="" fill="#1A70E2" transform="translate(0,0)"/>
<path d="" fill="#1A71E5" transform="translate(0,0)"/>
<path d="" fill="#176FE8" transform="translate(0,0)"/>
<path d="" fill="#186EE6" transform="translate(0,0)"/>
<path d="" fill="#1870E2" transform="translate(0,0)"/>
<path d="" fill="#1A71E4" transform="translate(0,0)"/>
<path d="" fill="#1E78E9" transform="translate(0,0)"/>
<path d="" fill="#176AE0" transform="translate(0,0)"/>
<path d="" fill="#186DE3" transform="translate(0,0)"/>
<path d="" fill="#1671E9" transform="translate(0,0)"/>
<path d="" fill="#1772EB" transform="translate(0,0)"/>
<path d="" fill="#1A72E6" transform="translate(0,0)"/>
<path d="" fill="#1873EA" transform="translate(0,0)"/>
<path d="" fill="#166DE2" transform="translate(0,0)"/>
<path d="" fill="#1A6CE3" transform="translate(0,0)"/>
<path d="" fill="#1C6FE7" transform="translate(0,0)"/>
<path d="" fill="#1480EF" transform="translate(0,0)"/>
<path d="" fill="#04BCE7" transform="translate(0,0)"/>
<path d="" fill="#1A6DE2" transform="translate(0,0)"/>
<path d="" fill="#06BCE6" transform="translate(0,0)"/>
<path d="" fill="#1C77E6" transform="translate(0,0)"/>
<path d="" fill="#1971E8" transform="translate(0,0)"/>
<path d="" fill="#1A72EC" transform="translate(0,0)"/>
<path d="" fill="#1B73E9" transform="translate(0,0)"/>
<path d="" fill="#197CEE" transform="translate(0,0)"/>
<path d="" fill="#1B77E7" transform="translate(0,0)"/>
<path d="" fill="#1870E5" transform="translate(0,0)"/>
<path d="" fill="#1B6EE5" transform="translate(0,0)"/>
<path d="" fill="#1A6DE4" transform="translate(0,0)"/>
<path d="" fill="#1870E9" transform="translate(0,0)"/>
<path d="" fill="#1682F5" transform="translate(0,0)"/>
<path d="" fill="#166EE6" transform="translate(0,0)"/>
<path d="" fill="#186FEA" transform="translate(0,0)"/>
<path d="" fill="#196FE7" transform="translate(0,0)"/>
<path d="" fill="#196DE7" transform="translate(0,0)"/>
<path d="" fill="#1672E9" transform="translate(0,0)"/>
<path d="" fill="#1D77EA" transform="translate(0,0)"/>
<path d="" fill="#1673EB" transform="translate(0,0)"/>
<path d="" fill="#1970EA" transform="translate(0,0)"/>
<path d="" fill="#1F6EDC" transform="translate(0,0)"/>
<path d="" fill="#1A72EC" transform="translate(0,0)"/>
<path d="" fill="#1A74ED" transform="translate(0,0)"/>
<path d="" fill="#1774ED" transform="translate(0,0)"/>
<path d="" fill="#1A7BEA" transform="translate(0,0)"/>
<path d="" fill="#2172DE" transform="translate(0,0)"/>
<path d="" fill="#1F6DDF" transform="translate(0,0)"/>
<path d="" fill="#1777E7" transform="translate(0,0)"/>
<path d="" fill="#1871E8" transform="translate(0,0)"/>
<path d="" fill="#1670E9" transform="translate(0,0)"/>
<path d="" fill="#05A9F0" transform="translate(0,0)"/>
<path d="" fill="#1192F1" transform="translate(0,0)"/>
<path d="" fill="#1B78E7" transform="translate(0,0)"/>
<path d="" fill="#1A73EC" transform="translate(0,0)"/>
<path d="" fill="#1770E9" transform="translate(0,0)"/>
<path d="" fill="#1771E8" transform="translate(0,0)"/>
<path d="" fill="#138EF4" transform="translate(0,0)"/>
<path d="" fill="#1281EE" transform="translate(0,0)"/>
<path d="" fill="#0F90F4" transform="translate(0,0)"/>
<path d="" fill="#1490F4" transform="translate(0,0)"/>
<path d="" fill="#128AF7" transform="translate(0,0)"/>
<path d="" fill="#166EE4" transform="translate(0,0)"/>
<path d="" fill="#0AB8E0" transform="translate(0,0)"/>
<path d="" fill="#1776F0" transform="translate(0,0)"/>
<path d="" fill="#167AF0" transform="translate(0,0)"/>
<path d="" fill="#1575EB" transform="translate(0,0)"/>
<path d="" fill="#1775EB" transform="translate(0,0)"/>
<path d="" fill="#0BB5E4" transform="translate(0,0)"/>
<path d="" fill="#09B4EA" transform="translate(0,0)"/>
<path d="" fill="#09B8E5" transform="translate(0,0)"/>
<path d="" fill="#0AB7E5" transform="translate(0,0)"/>
<path d="" fill="#186DE8" transform="translate(0,0)"/>
<path d="" fill="#02BBE6" transform="translate(0,0)"/>
<path d="" fill="#176EE6" transform="translate(0,0)"/>
<path d="" fill="#1872E9" transform="translate(0,0)"/>
<path d="" fill="#1B72E9" transform="translate(0,0)"/>
<path d="" fill="#06B1EF" transform="translate(0,0)"/>
<path d="" fill="#177BF0" transform="translate(0,0)"/>
<path d="" fill="#1673E7" transform="translate(0,0)"/>
<path d="" fill="#0FB2E7" transform="translate(0,0)"/>
<path d="" fill="#177FF0" transform="translate(0,0)"/>
<path d="" fill="#1672E9" transform="translate(0,0)"/>
<path d="" fill="#156EEC" transform="translate(0,0)"/>
<path d="" fill="#187FF4" transform="translate(0,0)"/>
<path d="" fill="#08BBE9" transform="translate(0,0)"/>
<path d="" fill="#07BBE5" transform="translate(0,0)"/>
<path d="" fill="#176DEB" transform="translate(0,0)"/>
<path d="" fill="#1476ED" transform="translate(0,0)"/>
<path d="" fill="#1973E7" transform="translate(0,0)"/>
<path d="" fill="#1972E7" transform="translate(0,0)"/>
<path d="" fill="#166EE9" transform="translate(0,0)"/>
<path d="" fill="#1770E6" transform="translate(0,0)"/>
<path d="" fill="#187DF0" transform="translate(0,0)"/>
<path d="" fill="#1672EB" transform="translate(0,0)"/>
<path d="" fill="#177AEE" transform="translate(0,0)"/>
<path d="" fill="#0FB0DF" transform="translate(0,0)"/>
<path d="" fill="#1970E7" transform="translate(0,0)"/>
<path d="" fill="#1770EB" transform="translate(0,0)"/>
<path d="" fill="#127FF0" transform="translate(0,0)"/>
<path d="" fill="#0BB6E9" transform="translate(0,0)"/>
<path d="" fill="#1E7BE8" transform="translate(0,0)"/>
<path d="" fill="#1971E6" transform="translate(0,0)"/>
<path d="" fill="#1573EE" transform="translate(0,0)"/>
<path d="" fill="#1771E3" transform="translate(0,0)"/>
<path d="" fill="#1A6CDD" transform="translate(0,0)"/>
<path d="" fill="#1D7AEB" transform="translate(0,0)"/>
<path d="" fill="#1970E6" transform="translate(0,0)"/>
<path d="" fill="#177FF2" transform="translate(0,0)"/>
<path d="" fill="#1971E8" transform="translate(0,0)"/>
<path d="" fill="#1A71E5" transform="translate(0,0)"/>
<path d="" fill="#1A70E7" transform="translate(0,0)"/>
<path d="" fill="#167FEF" transform="translate(0,0)"/>
<path d="" fill="#1A6FDB" transform="translate(0,0)"/>
<path d="" fill="#10B9DD" transform="translate(0,0)"/>
<path d="" fill="#1A71DD" transform="translate(0,0)"/>
<path d="" fill="#1C6FE0" transform="translate(0,0)"/>
<path d="" fill="#186FDE" transform="translate(0,0)"/>
<path d="" fill="#1C74E1" transform="translate(0,0)"/>
<path d="" fill="#187DF2" transform="translate(0,0)"/>
<path d="" fill="#1E7CE8" transform="translate(0,0)"/>
<path d="" fill="#177EF3" transform="translate(0,0)"/>
<path d="" fill="#0C96F1" transform="translate(0,0)"/>
<path d="" fill="#1F76E0" transform="translate(0,0)"/>
<path d="" fill="#1570E7" transform="translate(0,0)"/>
<path d="" fill="#186FE4" transform="translate(0,0)"/>
<path d="" fill="#1F70DC" transform="translate(0,0)"/>
<path d="" fill="#187EF2" transform="translate(0,0)"/>
<path d="" fill="#1970E4" transform="translate(0,0)"/>
<path d="" fill="#1C72E0" transform="translate(0,0)"/>
<path d="" fill="#1C72E1" transform="translate(0,0)"/>
<path d="" fill="#1194F4" transform="translate(0,0)"/>
<path d="" fill="#0D8AEE" transform="translate(0,0)"/>
<path d="" fill="#167CF2" transform="translate(0,0)"/>
<path d="" fill="#0CB9EA" transform="translate(0,0)"/>
<path d="" fill="#108CF2" transform="translate(0,0)"/>
<path d="" fill="#2071DD" transform="translate(0,0)"/>
<path d="" fill="#09B9ED" transform="translate(0,0)"/>
<path d="" fill="#108DEF" transform="translate(0,0)"/>
<path d="" fill="#2072E0" transform="translate(0,0)"/>
<path d="" fill="#1B71D9" transform="translate(0,0)"/>
<path d="" fill="#1089EF" transform="translate(0,0)"/>
<path d="" fill="#1C70DA" transform="translate(0,0)"/>
<path d="" fill="#1381F5" transform="translate(0,0)"/>
<path d="" fill="#1E74D9" transform="translate(0,0)"/>
<path d="" fill="#1B71DF" transform="translate(0,0)"/>
<path d="" fill="#1C70D4" transform="translate(0,0)"/>
<path d="" fill="#1B7BDC" transform="translate(0,0)"/>
<path d="" fill="#08B7EA" transform="translate(0,0)"/>
<path d="" fill="#1F71DD" transform="translate(0,0)"/>
<path d="" fill="#1E70DA" transform="translate(0,0)"/>
<path d="" fill="#09ABEB" transform="translate(0,0)"/>
<path d="" fill="#2479C7" transform="translate(0,0)"/>
<path d="" fill="#05AFF0" transform="translate(0,0)"/>
<path d="" fill="#1288EE" transform="translate(0,0)"/>
<path d="" fill="#0CB8E6" transform="translate(0,0)"/>
<path d="" fill="#1681F1" transform="translate(0,0)"/>
<path d="" fill="#148AF0" transform="translate(0,0)"/>
<path d="" fill="#148BF3" transform="translate(0,0)"/>
<path d="" fill="#1980F0" transform="translate(0,0)"/>
<path d="" fill="#1589F2" transform="translate(0,0)"/>
<path d="" fill="#227FF1" transform="translate(0,0)"/>
<path d="" fill="#118BEE" transform="translate(0,0)"/>
<path d="" fill="#1786F3" transform="translate(0,0)"/>
<path d="" fill="#1E81F0" transform="translate(0,0)"/>
<path d="" fill="#207AE6" transform="translate(0,0)"/>
<path d="" fill="#07B3EB" transform="translate(0,0)"/>
<path d="" fill="#118CF1" transform="translate(0,0)"/>
<path d="" fill="#1383F3" transform="translate(0,0)"/>
<path d="" fill="#1483EE" transform="translate(0,0)"/>
<path d="" fill="#0C8CF2" transform="translate(0,0)"/>
<path d="" fill="#1086EC" transform="translate(0,0)"/>
<path d="" fill="#0AB5E8" transform="translate(0,0)"/>
<path d="" fill="#07B7ED" transform="translate(0,0)"/>
<path d="" fill="#0BB8EC" transform="translate(0,0)"/>
<path d="" fill="#07B3EE" transform="translate(0,0)"/>
<path d="" fill="#2276D3" transform="translate(0,0)"/>
<path d="" fill="#1B7EE2" transform="translate(0,0)"/>
<path d="" fill="#10AFDE" transform="translate(0,0)"/>
<path d="" fill="#0EA4E6" transform="translate(0,0)"/>
<path d="" fill="#1A8ADC" transform="translate(0,0)"/>
</svg>
